<svg xmlns="http://www.w3.org/2000/svg" width="192" height="192" viewBox="0 0 50.8 50.8" fill="#eb7818""><path d="M23.186 50.592c-.244-.121-.643-.483-.951-.862-.805-.992-2.836-2.901-3.865-3.632-.857-.609-2.57-1.553-2.817-1.553-.061 0-.281.136-.489.303-3.089 2.47-8.982.142-11.512-4.549-.873-1.619-1.24-3.347-1.015-4.788.211-1.354.494-1.806 2.399-3.827 1.87-1.983 3.014-3.37 3.814-4.622 1.558-2.437 1.842-3.585 1.99-8.049.141-4.248.261-5.118.93-6.724.644-1.548 2.002-3.2 3.029-3.686 2.657-1.257 7.655.393 12.7 4.193 3.162 2.382 6.569 5.888 8.781 9.036 3.252 4.629 4.647 9.186 3.577 11.682-.401.935-1.84 2.208-3.35 2.964-1.523.762-2.715.944-7.163 1.092-1.915.064-3.365.16-3.843.256-.864.173-2.139.586-2.65.858l-.341.181.612.377c1.15.71 1.696 1.591 1.697 2.737 0 .367-.058.774-.13.906s-.115.252-.096.268a255.89 255.89 0 0 0 1.726 1.165c3.313 2.226 3.23 2.151 3.229 2.925 0 .341-.067.628-.186.804-.228.337-4.944 2.751-5.374 2.751-.156 0-.473-.094-.704-.208zm-2.072-14.085c2.371-1.242 4.757-1.699 8.896-1.701.984-.001 1.745-.039 1.692-.086s-.397-.214-.764-.373c-2.321-1.002-5.421-3.063-7.895-5.248-3.892-3.436-6.84-7.144-8.75-11.006l-.734-1.484-.067 2.407c-.115 4.136-.496 5.953-1.734 8.28-.558 1.049-.589 1.259-.341 2.272.484 1.974 2.001 4.175 3.824 5.548 1.355 1.021 3.279 1.82 4.644 1.93.096.007.649-.235 1.23-.54zm15.341-3.876c.683-.352.891-.813.891-1.978a4.6 4.6 0 0 0-.295-1.794c-1.129-3.342-4.483-7.912-8.542-11.639-5.214-4.787-10.428-7.345-12.361-6.065-.711.471-.991 1.664-.696 2.976.927 4.133 6.26 10.831 12.051 15.137 4.08 3.033 7.267 4.231 8.953 3.363zm-8.85-5.988c-1.368-1.111-3.095-2.703-4.048-3.732-1.412-1.525-2.668-3.04-2.668-3.218 0-.033.23-.176.511-.318 2.057-1.042 4.643-.628 6.3 1.011.785.776 1.23 1.545 1.496 2.583.24.94.256 1.707.052 2.571-.167.71-.615 1.783-.74 1.775-.045-.002-.452-.305-.903-.671zm10.794-6.229c-.43-4.348-3.665-7.583-8.014-8.014l-.752-.074v-2.272-2.272h.597c1.568.001 3.56.509 5.27 1.343a12.94 12.94 0 0 1 6.175 6.175c.834 1.71 1.342 3.702 1.343 5.27v.597h-2.272-2.272zm7.731-.068c0-1.795-.657-4.417-1.595-6.366-2.3-4.78-6.844-8.214-12.045-9.103-.67-.115-1.588-.208-2.039-.208h-.82V2.335 0h.389c.833 0 2.73.226 3.932.469a20.98 20.98 0 0 1 8.645 3.974c3.983 3.103 6.764 7.563 7.727 12.392.246 1.234.474 3.127.474 3.936v.397h-2.335-2.335z"/></svg>