<?xml version="1.0" encoding="UTF-8" standalone="no"?>
<svg
   viewBox="0 0 1387.3888 2281.2342"
   version="1.1"
   id="svg240"
   sodipodi:docname="newspaper-template.svg"
   width="1387.3888"
   height="2281.2341"
   inkscape:version="1.1.2 (0a00cf5339, 2022-02-04)"
   xmlns:inkscape="http://www.inkscape.org/namespaces/inkscape"
   xmlns:sodipodi="http://sodipodi.sourceforge.net/DTD/sodipodi-0.dtd"
   xmlns:xlink="http://www.w3.org/1999/xlink"
   xmlns="http://www.w3.org/2000/svg"
   xmlns:svg="http://www.w3.org/2000/svg">
  <sodipodi:namedview
     id="namedview242"
     pagecolor="#ffffff"
     bordercolor="#666666"
     borderopacity="1.0"
     inkscape:pageshadow="2"
     inkscape:pageopacity="0.0"
     inkscape:pagecheckerboard="0"
     showgrid="false"
     fit-margin-top="0"
     fit-margin-left="0"
     fit-margin-right="0"
     fit-margin-bottom="0"
     inkscape:zoom="1.1524907"
     inkscape:cx="-294.57938"
     inkscape:cy="449.46132"
     inkscape:window-width="1920"
     inkscape:window-height="1163"
     inkscape:window-x="0"
     inkscape:window-y="0"
     inkscape:window-maximized="1"
     inkscape:current-layer="g238" />
  <defs
     id="defs116">
    <filter
       id="filter7482-08-9"
       x="-0.022324934"
       y="-0.026097854"
       width="1.0446499"
       height="1.0521957">
      <feGaussianBlur
         stdDeviation="2.15953"
         id="feGaussianBlur2" />
    </filter>
    <linearGradient
       gradientUnits="userSpaceOnUse"
       id="linearGradient7018"
       x2="0"
       y1="1160.0238"
       y2="968.84564">
      <stop
         offset="0"
         id="stop5" />
      <stop
         offset="1"
         stop-opacity="0"
         id="stop7" />
    </linearGradient>
    <linearGradient
       id="linearGradient6236-1-6">
      <stop
         offset="0"
         stop-color="#f5f5f2"
         id="stop10" />
      <stop
         offset=".10354"
         stop-color="#f6f6f4"
         id="stop12" />
      <stop
         offset=".88421"
         stop-color="#f6f6f4"
         id="stop14" />
      <stop
         offset=".91561"
         stop-color="#fcfbf7"
         id="stop16" />
      <stop
         offset="1"
         stop-color="#d7d7cf"
         id="stop18" />
    </linearGradient>
    <linearGradient
       gradientUnits="userSpaceOnUse"
       id="linearGradient3403"
       x1="221.68439"
       x2="185.07169"
       y1="857.56787"
       y2="885.27673">
      <stop
         offset="0"
         stop-color="#e3e3d9"
         id="stop21" />
      <stop
         offset=".5"
         stop-color="#fff"
         id="stop23" />
      <stop
         offset="1"
         stop-color="#f9f9f4"
         id="stop25" />
    </linearGradient>
    <linearGradient
       gradientTransform="matrix(0.47772,0.79049,-0.55334,0.33441,282.53516,616.15559)"
       gradientUnits="userSpaceOnUse"
       id="linearGradient3455"
       x2="0"
       y1="312.36218"
       y2="342.36218">
      <stop
         offset="0"
         stop-color="#e5e5e0"
         id="stop28" />
      <stop
         offset="1"
         stop-color="#fff"
         stop-opacity="0"
         id="stop30" />
    </linearGradient>
    <linearGradient
       gradientUnits="userSpaceOnUse"
       id="linearGradient3458"
       x2="0"
       xlink:href="#linearGradient6236-1-6"
       y1="832.18774"
       y2="1016.5426" />
    <linearGradient
       gradientUnits="userSpaceOnUse"
       id="linearGradient3464"
       x1="505.22986"
       x2="163.6319"
       xlink:href="#linearGradient6236-1-6"
       y1="619.41797"
       y2="863.71747" />
    <pattern
       height="115.00439"
       id="pattern5645-05-4-37-0-0"
       patternTransform="translate(6.40405,223.3728)"
       patternUnits="userSpaceOnUse"
       width="87.62443">
      <path
         d="m2.09595,1.98889h77.35526"
         stroke="#716c61"
         stroke-linecap="round"
         stroke-width="4"
         id="path35" />
      <path
         d="m2.09595,11.57227h75.96457"
         stroke="#716c61"
         stroke-linecap="round"
         stroke-width="4"
         id="path37" />
      <path
         d="m2.09595,21.15564h78.59565"
         stroke="#716c61"
         stroke-linecap="round"
         stroke-width="4"
         id="path39" />
      <path
         d="m2.09595,30.73902h31"
         stroke="#716c61"
         stroke-linecap="round"
         stroke-width="4"
         id="path41" />
      <path
         d="m2.09595,40.32239h81.67296"
         stroke="#716c61"
         stroke-linecap="round"
         stroke-width="4"
         id="path43" />
      <path
         d="m2.09595,49.90576h83.37313"
         stroke="#716c61"
         stroke-linecap="round"
         stroke-width="4"
         id="path45" />
      <path
         d="m2.09595,59.48914h78.62069"
         stroke="#716c61"
         stroke-linecap="round"
         stroke-width="4"
         id="path47" />
      <path
         d="m2.09595,69.07251h75.19565"
         stroke="#716c61"
         stroke-linecap="round"
         stroke-width="4"
         id="path49" />
      <path
         d="m2.09595,78.65589h83.5"
         stroke="#716c61"
         stroke-linecap="round"
         stroke-width="4"
         id="path51" />
      <path
         d="m2.09595,88.23926h80.42638"
         stroke="#716c61"
         stroke-linecap="round"
         stroke-width="4"
         id="path53" />
      <path
         d="m2.09595,97.82264h44.08621"
         stroke="#716c61"
         stroke-linecap="round"
         stroke-width="4"
         id="path55" />
      <path
         d="m2.09595,107.40601h68.27756"
         stroke="#716c61"
         stroke-linecap="round"
         stroke-width="4"
         id="path57" />
    </pattern>
    <pattern
       id="pattern3461"
       patternTransform="matrix(.63376,0,0,.49797,-151.47052,667.35311)"
       xlink:href="#pattern6243" />
    <pattern
       id="pattern3448"
       patternTransform="matrix(.63376,0,0,.49797,-161.18401,734.74348)"
       xlink:href="#pattern6230" />
    <pattern
       id="pattern3441"
       patternTransform="matrix(.63376,0,0,.49797,-146.40597,692.2566)"
       xlink:href="#pattern6223" />
    <pattern
       id="pattern3438"
       patternTransform="matrix(.63376,0,0,.49797,-148.25322,739.82342)"
       xlink:href="#pattern6220" />
    <pattern
       id="pattern3435"
       patternTransform="matrix(.63376,0,0,.49797,-154.2568,696.87474)"
       xlink:href="#pattern6217" />
    <pattern
       id="pattern3432"
       patternTransform="matrix(.63376,0,0,.49797,-161.18401,734.74348)"
       xlink:href="#pattern6214" />
    <pattern
       id="pattern3419"
       patternTransform="matrix(.63376,0,0,.49797,-126.21611,693.64205)"
       xlink:href="#pattern6200" />
    <pattern
       id="pattern3416"
       patternTransform="matrix(.63376,0,0,.49797,-146.40597,692.2566)"
       xlink:href="#pattern6197" />
    <pattern
       id="pattern3411"
       patternTransform="matrix(.63376,0,0,.49797,-161.18401,734.74348)"
       xlink:href="#pattern6192" />
    <pattern
       id="pattern3406"
       patternTransform="matrix(.63376,0,0,.49797,236.73431,844.59862)"
       xlink:href="#pattern6187" />
    <pattern
       id="pattern6243"
       patternTransform="matrix(.68616,0,0,.53915,1221.1894,771.89386)"
       xlink:href="#pattern7121-7-1" />
    <pattern
       id="pattern7121-7-1"
       patternTransform="matrix(.68616,0,0,.53915,1221.1894,771.89386)"
       xlink:href="#pattern6367-4-1-4" />
    <pattern
       id="pattern6367-4-1-4"
       patternTransform="matrix(.68616,0,0,.53915,-8.45528,272.06034)"
       xlink:href="#pattern5981-6-0-6-3" />
    <pattern
       id="pattern5981-6-0-6-3"
       patternTransform="matrix(.68616,0,0,.53915,-8.45528,272.06034)"
       xlink:href="#pattern5856-2-1-1-4-9" />
    <pattern
       id="pattern5856-2-1-1-4-9"
       patternTransform="matrix(.68616,0,0,.53915,171.54469,226.56034)"
       xlink:href="#pattern5827-2-9-0-3-8" />
    <pattern
       id="pattern5827-2-9-0-3-8"
       patternTransform="matrix(.68616,0,0,.53915,6.54468,226.56033)"
       xlink:href="#pattern5662-1-4-00-4-8" />
    <pattern
       id="pattern5662-1-4-00-4-8"
       patternTransform="matrix(.54351,0,0,.45219,6.40405,226.56033)"
       xlink:href="#pattern5645-05-4-37-0-0" />
    <pattern
       id="pattern6230"
       patternTransform="matrix(.68616,0,0,.53915,1209.9041,863.06315)"
       xlink:href="#pattern6367-9-9" />
    <pattern
       id="pattern6367-9-9"
       patternTransform="matrix(.68616,0,0,.53915,1209.9041,863.06315)"
       xlink:href="#pattern5981-6-52-8" />
    <pattern
       id="pattern5981-6-52-8"
       patternTransform="matrix(.68616,0,0,.53915,-8.45528,272.06034)"
       xlink:href="#pattern5856-2-1-65-1" />
    <pattern
       id="pattern5856-2-1-65-1"
       patternTransform="matrix(.68616,0,0,.53915,171.54469,226.56034)"
       xlink:href="#pattern5827-2-9-8-8" />
    <pattern
       id="pattern5827-2-9-8-8"
       patternTransform="matrix(.68616,0,0,.53915,6.54468,226.56033)"
       xlink:href="#pattern5662-1-4-00-4-8" />
    <pattern
       id="pattern6223"
       patternTransform="matrix(.68616,0,0,.53915,1225.9041,817.06314)"
       xlink:href="#pattern5827-1-0" />
    <pattern
       id="pattern5827-1-0"
       patternTransform="matrix(.68616,0,0,.53915,1225.9041,817.06314)"
       xlink:href="#pattern5662-1-4-00-4-8" />
    <pattern
       id="pattern6220"
       patternTransform="matrix(.68616,0,0,.53915,1223.9041,868.56313)"
       xlink:href="#pattern5856-6-2" />
    <pattern
       id="pattern5856-6-2"
       patternTransform="matrix(.68616,0,0,.53915,1223.9041,868.56313)"
       xlink:href="#pattern5827-5-0-0" />
    <pattern
       id="pattern5827-5-0-0"
       patternTransform="matrix(.68616,0,0,.53915,6.54468,226.56033)"
       xlink:href="#pattern5662-1-4-00-4-8" />
    <pattern
       id="pattern6217"
       patternTransform="matrix(.68616,0,0,.53915,1217.4041,822.06315)"
       xlink:href="#pattern5856-4-88-8" />
    <pattern
       id="pattern5856-4-88-8"
       patternTransform="matrix(.68616,0,0,.53915,1217.4041,822.06315)"
       xlink:href="#pattern5827-4-5-2" />
    <pattern
       id="pattern5827-4-5-2"
       patternTransform="matrix(.68616,0,0,.53915,6.54468,226.56033)"
       xlink:href="#pattern5662-1-4-00-4-8" />
    <pattern
       id="pattern6214"
       patternTransform="matrix(.68616,0,0,.53915,1209.9041,863.06315)"
       xlink:href="#pattern5981-5-3" />
    <pattern
       id="pattern5981-5-3"
       patternTransform="matrix(.68616,0,0,.53915,1209.9041,863.06315)"
       xlink:href="#pattern5856-2-90-8" />
    <pattern
       id="pattern5856-2-90-8"
       patternTransform="matrix(.68616,0,0,.53915,171.54469,226.56034)"
       xlink:href="#pattern5827-2-0-9" />
    <pattern
       id="pattern5827-2-0-9"
       patternTransform="matrix(.68616,0,0,.53915,6.54468,226.56033)"
       xlink:href="#pattern5662-1-4-00-4-8" />
    <pattern
       id="pattern6200"
       patternTransform="matrix(.68616,0,0,.53915,1247.7634,818.56315)"
       xlink:href="#pattern6295-3-5" />
    <pattern
       id="pattern6295-3-5"
       patternTransform="matrix(.68616,0,0,.53915,1247.7634,818.56315)"
       xlink:href="#pattern5827-8-0-0" />
    <pattern
       id="pattern5827-8-0-0"
       patternTransform="matrix(.68616,0,0,.53915,7.54468,226.06033)"
       xlink:href="#pattern5662-1-4-00-4-8" />
    <pattern
       id="pattern6197"
       patternTransform="matrix(.68616,0,0,.53915,1225.9041,817.06314)"
       xlink:href="#pattern6441-2-3" />
    <pattern
       id="pattern6441-2-3"
       patternTransform="matrix(.68616,0,0,.53915,1225.9041,817.06314)"
       xlink:href="#pattern5827-26-5-4" />
    <pattern
       id="pattern5827-26-5-4"
       patternTransform="matrix(.68616,0,0,.53915,7.54468,226.06033)"
       xlink:href="#pattern5662-1-4-00-4-8" />
    <pattern
       id="pattern6192"
       patternTransform="matrix(.68616,0,0,.53915,1209.9041,863.06315)"
       xlink:href="#pattern6517-6-2" />
    <pattern
       id="pattern6517-6-2"
       patternTransform="matrix(.68616,0,0,.53915,1209.9041,863.06315)"
       xlink:href="#pattern5981-8-3-1" />
    <pattern
       id="pattern5981-8-3-1"
       patternTransform="matrix(.68616,0,0,.53915,-8.45528,272.06034)"
       xlink:href="#pattern5856-2-8-4-6" />
    <pattern
       id="pattern5856-2-8-4-6"
       patternTransform="matrix(.68616,0,0,.53915,171.54469,226.56034)"
       xlink:href="#pattern5827-2-90-8-8" />
    <pattern
       id="pattern5827-2-90-8-8"
       patternTransform="matrix(.68616,0,0,.53915,6.54468,226.56033)"
       xlink:href="#pattern5662-1-4-00-4-8" />
    <pattern
       id="pattern6187"
       patternTransform="matrix(.68616,0,0,.53915,1640.7252,982.00191)"
       xlink:href="#pattern6615-16-4" />
    <pattern
       id="pattern6615-16-4"
       patternTransform="matrix(.68616,0,0,.53915,1640.7252,982.00191)"
       xlink:href="#pattern6367-2-7-8" />
    <pattern
       id="pattern6367-2-7-8"
       patternTransform="matrix(.68616,0,0,.53915,-8.45528,272.06034)"
       xlink:href="#pattern5981-6-5-0-8" />
    <pattern
       id="pattern5981-6-5-0-8"
       patternTransform="matrix(.68616,0,0,.53915,-8.45528,272.06034)"
       xlink:href="#pattern5856-2-1-6-9-2" />
    <pattern
       id="pattern5856-2-1-6-9-2"
       patternTransform="matrix(.68616,0,0,.53915,171.54469,226.56034)"
       xlink:href="#pattern5827-2-9-9-3-4" />
    <pattern
       id="pattern5827-2-9-9-3-4"
       patternTransform="matrix(.68616,0,0,.53915,6.54468,226.56033)"
       xlink:href="#pattern5662-1-4-00-4-8" />
    <radialGradient
       cx="348"
       cy="471.36218"
       gradientTransform="matrix(2.0977,0.75804,-0.34942,2.05291,-369.29067,-349.546)"
       gradientUnits="userSpaceOnUse"
       id="radialGradient3452"
       r="22.5">
      <stop
         offset="0"
         stop-color="#dcdcd5"
         id="stop111" />
      <stop
         offset="1"
         stop-color="#fff"
         stop-opacity="0"
         id="stop113" />
    </radialGradient>
  </defs>
  <g
     transform="matrix(6.1936843,0,0,11.819787,-99.118883,-9785.1897)"
     id="g238">
    <path
       d="m 1406.9219,969.06531 v 198.59379 h 232.1562 l -0.031,-68.7813 c -0.1297,-10.3348 -1.3572,-20.9048 -3.5312,-31.375 0.1127,-30.9607 0.5216,-62.0614 1.0625,-94.93749 -18.3745,-0.91084 -40.3219,-1.19535 -61.9688,-1.15625 -1.8315,-0.8984 -3.6659,-1.67242 -5.5312,-2.34375 z"
       fill="url(#linearGradient7018)"
       filter="url(#filter7482-08-9)"
       opacity="0.75"
       transform="matrix(0.92363,0,0,0.92363,-1278.685,-62.40559)"
       id="path118"
       style="fill:url(#linearGradient7018)" />
    <path
       d="m 232.90393,835.88271 c -1.00149,60.87325 -1.52241,115.20621 -0.30332,174.96919 L 106.34366,991.91188 85.44104,836.56864 c 0,0 91.58859,-3.45567 147.46289,-0.68593 z"
       fill="url(#linearGradient3464)"
       id="path120"
       style="fill:url(#linearGradient3464)" />
    <path
       d="m 192.66937,842.35681 h 42.48687 v 71.17288 h -42.48687 z"
       fill="url(#pattern3461)"
       opacity="0.75"
       transform="rotate(0.75328)"
       id="path122" />
    <path
       d="M 20.7871,832.65002 V 1016.0768 H 235.21301 V 952.98143 C 231.47583,891.25077 196.28238,849.46954 170.55907,832.65002 Z"
       fill="url(#linearGradient3458)"
       id="path124"
       style="fill:url(#linearGradient3458)" />
    <path
       d="m 154.74193,832.65002 78.56609,130.00059 1.90498,-1.15453 v -8.51465 c -0.72699,-12.00928 -2.64841,-23.2502 -5.45513,-33.7125 L 183.4033,842.579 c -4.41355,-3.92668 -8.74592,-7.24926 -12.84424,-9.92898 z"
       fill="url(#linearGradient3455)"
       id="path126"
       style="fill:url(#linearGradient3455)" />
    <path
       d="m 173.70521,834.81477 c -12.75871,4.34788 -22.35585,15.04592 -24.90913,30.04676 -4.34197,25.51022 13.30273,53.81997 39.36963,63.23968 16.1561,5.83825 31.74306,3.03698 42.3137,-6.00358 -10.64149,-42.65507 -36.0987,-72.55351 -56.7742,-87.28286 z"
       fill="url(#radialGradient3452)"
       id="path128"
       style="fill:url(#radialGradient3452)" />
    <path
       d="m 183.4033,886.84359 h 29.09428"
       fill="none"
       stroke="#716c61"
       stroke-linecap="round"
       stroke-width="1.38544"
       id="path130" />
    <path
       d="m 182.9559,909.74725 h 42.48687 v 71.17288 H 182.9559 Z"
       fill="url(#pattern3448)"
       id="path132" />
    <path
       d="m 175.49821,853.21606 h 15.28118 v 24.12424 h -15.28118 z"
       opacity="0.35"
       id="path134" />
    <path
       d="m 30.42744,880.49365 h 170.40932 v 3.2327 H 30.42744 Z"
       fill="#716c61"
       id="path136" />
    <path
       d="m 31.14902,876.79913 v -1.49728 c 0.87793,-0.10824 1.5033,-0.27661 1.87612,-0.50511 0.37282,-0.2285 0.55922,-0.42694 0.55923,-0.59531 v -17.28194 c -0.38485,-0.36077 -0.78473,-0.66143 -1.19963,-0.90198 -0.4149,-0.24055 -0.82682,-0.39084 -1.23571,-0.45099 v -1.49729 h 5.44796 c 0.18039,2e-5 0.32771,0.0151 0.44197,0.0451 0.11426,0.03 0.2315,0.0932 0.35177,0.18942 0.12027,0.0962 0.24954,0.23754 0.38785,0.42393 l 0.55021,0.74864 10.76964,14.95483 v -13.74618 c -1.9e-5,-0.0721 -0.0361,-0.15933 -0.10824,-0.26157 -0.07214,-0.10224 -0.20146,-0.20443 -0.38785,-0.30667 -0.18639,-0.10224 -0.43598,-0.20142 -0.74864,-0.29766 -0.31266,-0.0962 -0.70957,-0.18037 -1.19061,-0.25255 v -1.49729 h 7.75703 v 1.49729 c -0.86592,0.12028 -1.48829,0.29467 -1.8671,0.52315 -0.37881,0.22848 -0.56827,0.42695 -0.56825,0.5953 v 20.65535 c -0.66147,-0.0481 -1.25979,-0.14131 -1.79494,-0.27961 -0.53515,-0.1383 -1.01024,-0.30367 -1.42513,-0.49609 -0.41489,-0.19242 -0.77271,-0.4089 -1.07336,-0.64943 -0.30065,-0.24053 -0.54722,-0.49308 -0.73962,-0.75766 L 36.47071,860.65369 v 13.54774 c -6e-6,0.0722 0.03908,0.15935 0.11726,0.26157 0.07818,0.10222 0.21346,0.20446 0.40589,0.30668 0.19243,0.10222 0.44196,0.20144 0.74864,0.29765 0.30668,0.0962 0.69452,0.17439 1.16355,0.23452 v 1.49728 z"
       fill="#716c61"
       id="path138" />
    <path
       d="m 74.11936,870.9543 c -0.04812,0.51714 -0.10224,1.07938 -0.16236,1.6867 -0.06012,0.60732 -0.12629,1.19062 -0.19844,1.74985 -0.07215,0.55923 -0.14133,1.05531 -0.20746,1.48826 -0.06613,0.43295 -0.12329,0.73963 -0.17138,0.92002 H 55.82719 v -1.49728 c 0.81779,-0.16837 1.42813,-0.35177 1.83102,-0.55021 0.40289,-0.19844 0.60432,-0.38184 0.60433,-0.55021 v -17.51646 c -3e-6,-0.14429 -0.18942,-0.32469 -0.56825,-0.54118 -0.37883,-0.21649 -1.0012,-0.40888 -1.8671,-0.57727 v -1.49729 h 16.34388 l 0.7757,0.63139 c -0.02407,0.31271 -0.06015,0.7216 -0.10824,1.22669 -0.04809,0.50509 -0.10826,1.02226 -0.1804,1.55141 -0.07214,0.52915 -0.14734,1.02827 -0.2255,1.49728 -0.07816,0.46901 -0.15335,0.81782 -0.2255,1.0463 h -1.53337 c -0.06015,-1.11844 -0.21048,-1.99937 -0.45099,-2.6428 -0.24051,-0.64343 -0.5833,-0.9651 -1.02826,-0.96512 H 63.3136 v 7.12564 h 7.12564 l 0.64943,0.68551 c -0.09623,0.16838 -0.21348,0.36682 -0.35177,0.59531 -0.13829,0.22849 -0.28264,0.46002 -0.43295,0.69452 -0.15031,0.2345 -0.30068,0.44799 -0.45099,0.64041 -0.15031,0.19242 -0.29165,0.33675 -0.42393,0.43295 -0.18041,-0.18039 -0.37584,-0.33072 -0.58629,-0.45099 -0.21045,-0.12027 -0.451,-0.22248 -0.72159,-0.30668 -0.27059,-0.0842 -0.58931,-0.1443 -0.9561,-0.18039 -0.36679,-0.0361 -0.80277,-0.0541 -1.30787,-0.0541 H 63.3136 v 7.70291 c -8e-6,0.1804 0.04208,0.33975 0.12628,0.47805 0.0842,0.1383 0.25856,0.25857 0.52315,0.36079 0.26459,0.10222 0.63739,0.1804 1.11846,0.23452 0.48107,0.0541 1.11844,0.0812 1.9122,0.0812 h 1.60553 c 0.5532,10e-6 1.02524,-0.0752 1.41611,-0.22549 0.39087,-0.15029 0.7366,-0.38785 1.03728,-0.71256 0.30068,-0.32471 0.57424,-0.73962 0.8208,-1.24474 0.24656,-0.50512 0.49607,-1.11243 0.74864,-1.822 z"
       fill="#716c61"
       id="path140" />
    <path
       d="m 106.30201,855.56652 c -0.52919,0.10826 -0.96815,0.21048 -1.31689,0.30667 -0.34874,0.0962 -0.6254,0.18944 -0.82982,0.27962 -0.20442,0.0902 -0.3518,0.17741 -0.44197,0.26157 -0.0902,0.0842 -0.14134,0.1744 -0.15334,0.27059 l -4.13107,19.04983 c -0.06016,0.25255 -0.19846,0.47203 -0.41491,0.65844 -0.21645,0.18641 -0.46304,0.34275 -0.73962,0.46903 -0.27658,0.12628 -0.55624,0.2285 -0.83884,0.30668 -0.2826,0.0782 -0.51415,0.13529 -0.69452,0.17137 l -6.2417,-15.94701 -5.17737,14.34149 c -0.08419,0.25255 -0.23753,0.46903 -0.46001,0.64942 -0.22248,0.18039 -0.47505,0.33374 -0.75766,0.46001 -0.28261,0.12627 -0.57427,0.2285 -0.87492,0.30668 -0.30065,0.0782 -0.57126,0.14131 -0.81178,0.18941 l -4.6903,-20.51103 c -0.06013,-0.30064 -0.27661,-0.54718 -0.64943,-0.73962 -0.37282,-0.19244 -0.98617,-0.36679 -1.84004,-0.52315 v -1.49729 h 9.18216 v 1.49729 c -0.5893,0.0602 -1.0433,0.13532 -1.36199,0.22549 -0.31869,0.0902 -0.55022,0.18944 -0.69452,0.29766 -0.1443,0.10822 -0.2225,0.22551 -0.23452,0.35177 -0.01202,0.12626 -0.006,0.25558 0.01804,0.38785 l 2.92242,12.21281 5.06913,-14.97287 h 2.07456 l 5.93503,14.97287 2.74202,-12.35713 c 0.024,-0.14429 -0.0301,-0.27057 -0.16235,-0.37883 -0.13225,-0.10826 -0.32474,-0.20443 -0.57727,-0.28863 -0.25253,-0.0842 -0.55324,-0.16234 -0.90198,-0.23452 l -1.1365,-0.21647 v -1.49729 h 8.18998 z"
       fill="#716c61"
       id="path142" />
    <path
       d="m 124.21534,869.9982 c -1e-5,0.5412 -0.0842,1.09441 -0.25255,1.65965 -0.16835,0.56524 -0.41793,1.12146 -0.74864,1.66866 -0.33071,0.5472 -0.75167,1.06434 -1.26278,1.55141 -0.51111,0.48707 -1.11245,0.911 -1.80396,1.27179 -0.69151,0.36079 -1.47024,0.64942 -2.33613,0.8659 -0.86589,0.21648 -1.82802,0.32471 -2.88633,0.32471 -0.44499,0 -0.96212,-0.0421 -1.55141,-0.12628 -0.58929,-0.0842 -1.19062,-0.20144 -1.80396,-0.35177 -0.61334,-0.15033 -1.21166,-0.33373 -1.79494,-0.55021 -0.58328,-0.21648 -1.08538,-0.46301 -1.50631,-0.73962 -0.0601,-0.024 -0.10824,-0.14732 -0.14431,-0.36981 -0.0361,-0.22249 -0.0601,-0.5021 -0.0722,-0.83884 -0.0121,-0.33674 -0.018,-0.71557 -0.018,-1.1365 0,-0.42093 0.018,-0.85086 0.0541,-1.28983 0.0361,-0.43897 0.0842,-0.8689 0.14431,-1.28983 0.0601,-0.42093 0.13229,-0.79975 0.21648,-1.1365 l 1.46121,0.0902 c 0.2766,0.70957 0.61033,1.37102 1.0012,1.98436 0.39087,0.61334 0.82981,1.14552 1.31689,1.5965 0.48708,0.45098 1.01321,0.80577 1.57846,1.06434 0.56525,0.25857 1.15453,0.38785 1.76788,0.38785 0.54118,0 1.05531,-0.0661 1.54239,-0.19843 0.48708,-0.13233 0.917,-0.33373 1.28983,-0.60433 0.37283,-0.2706 0.66745,-0.61334 0.88394,-1.02826 0.21649,-0.41492 0.3247,-0.91099 0.32472,-1.48827 -2e-5,-0.7336 -0.16237,-1.36799 -0.48707,-1.90317 -0.3247,-0.53518 -0.75467,-1.01021 -1.28984,-1.42513 -0.53517,-0.41492 -1.14552,-0.79073 -1.83102,-1.12748 -0.6855,-0.33675 -1.38605,-0.67347 -2.10161,-1.01022 -0.71556,-0.33675 -1.41611,-0.6915 -2.10161,-1.06433 -0.6855,-0.37283 -1.29585,-0.80275 -1.83102,-1.28984 -0.53517,-0.48709 -0.96513,-1.04928 -1.28984,-1.6867 -0.32471,-0.63742 -0.48707,-1.39504 -0.48706,-2.27299 -1e-5,-0.3728 0.0752,-0.7817 0.22549,-1.22669 0.15029,-0.44499 0.37883,-0.88994 0.68551,-1.33493 0.30668,-0.44499 0.69452,-0.8749 1.16355,-1.28983 0.46903,-0.41493 1.02224,-0.7817 1.65964,-1.10042 0.6374,-0.31872 1.36499,-0.57424 2.1828,-0.76668 0.81781,-0.19244 1.72578,-0.28861 2.72398,-0.28864 0.68549,3e-5 1.35295,0.0421 2.00239,0.12628 0.64944,0.0842 1.25374,0.19846 1.81298,0.34275 0.55924,0.14429 1.0523,0.31873 1.47925,0.52315 0.42695,0.20442 0.74863,0.42696 0.96512,0.66747 0.0601,0.0481 0.0751,0.16538 0.0451,0.35177 -0.03,0.18639 -0.0872,0.40591 -0.17138,0.65844 -0.0842,0.25253 -0.18943,0.52618 -0.31569,0.82081 -0.12626,0.29463 -0.25859,0.57728 -0.39687,0.84786 -0.13828,0.27058 -0.27362,0.51114 -0.40589,0.72158 -0.13227,0.21044 -0.24656,0.35781 -0.34276,0.44197 l -1.37101,-0.10823 c -0.24054,-0.61333 -0.52917,-1.12746 -0.8659,-1.54239 -0.33673,-0.41493 -0.69453,-0.74862 -1.07335,-1.0012 -0.37882,-0.25258 -0.76369,-0.42992 -1.15454,-0.53217 -0.39085,-0.10225 -0.75467,-0.15331 -1.09139,-0.15333 -0.57728,2e-5 -1.07036,0.0722 -1.47925,0.21647 -0.40889,0.14427 -0.74565,0.33977 -1.01022,0.58629 -0.26457,0.24652 -0.45701,0.52918 -0.57727,0.84786 -0.12026,0.31868 -0.1804,0.64644 -0.18039,0.98316 -10e-6,0.56526 0.16535,1.07037 0.49609,1.51532 0.33071,0.445 0.76667,0.8539 1.30787,1.2267 0.5412,0.3728 1.15452,0.73362 1.84004,1.08237 l 2.11063,1.0463 c 0.72157,0.36081 1.42512,0.75166 2.11063,1.17258 0.68551,0.42092 1.29884,0.89898 1.84004,1.43414 0.5412,0.53516 0.97713,1.14553 1.30788,1.83102 0.33075,0.68549 0.49607,1.47325 0.49608,2.36319 z"
       fill="#716c61"
       id="path144" />
    <path
       d="M 30.55732,910.04974 H 73.04419 V 1014.8814 H 30.55732 Z"
       fill="url(#pattern3441)"
       id="path146" />
    <path
       d="m 81.35685,967.54553 h 42.48687 v 47.79677 H 81.35685 Z"
       fill="url(#pattern3438)"
       id="path148" />
    <path
       d="m 132.15637,967.54553 h 42.48686 v 47.33497 h -42.48686 z"
       fill="url(#pattern3435)"
       id="path150" />
    <path
       d="m 182.9559,999.87543 h 42.48687 v 15.00597 H 182.9559 Z"
       fill="url(#pattern3432)"
       id="path152" />
    <path
       d="m 82.48109,960.75274 h 62.69834"
       fill="none"
       stroke="#716c61"
       stroke-linecap="round"
       stroke-width="2.24719"
       id="path154" />
    <path
       d="m 81.24139,896.19531 h 93.51731 v 61.42125 H 81.24139 Z"
       fill="#a3c093"
       id="path156" />
    <path
       d="m 81.24139,896.19532 h 93.51731 v 40.40871 c 0,0 -19.15807,3.78115 -24.95236,2.07817 -5.79429,-1.70298 -23.40121,13.40858 -31.43123,10.73255 -8.03002,-2.67603 -9.65016,-11.31684 -18.67557,-11.88709 -9.02541,-0.57025 -18.45815,8.31265 -18.45815,8.31265 z"
       fill="#bedaae"
       id="path158" />
    <path
       d="m 81.24139,896.19532 h 93.51731 v 33.33779 c 0,0 -13.32758,-10.26936 -21.17453,-10.28635 -10.8082,-0.0231 -18.51237,12.61823 -29.22636,14.04173 -10.04205,1.33427 -19.75224,-5.30403 -29.87954,-5.55138 -4.45133,-0.10871 -13.23688,1.796 -13.23688,1.796 z"
       fill="#b3b3b3"
       id="path160" />
    <path
       d="m 81.24139,896.19532 h 93.51731 v 24.10151 c 0,0 -0.98865,-8.93499 -4.45724,-10.46997 -5.55387,-2.45786 -11.56964,3.73155 -17.20709,5.99112 -4.75724,1.90673 -8.88188,5.98926 -13.99259,6.37247 -4.75752,0.35671 -9.2179,-5.36923 -13.76437,-3.92338 -3.1492,1.00149 -3.09988,6.61705 -6.21306,7.7255 -5.75697,2.0498 -12.10238,-1.97925 -17.9325,-3.81034 -5.47333,-1.71915 -10.15686,-7.33914 -15.85703,-6.69085 -1.67269,0.19027 -4.09342,2.9582 -4.09342,2.9582 z"
       fill="#f2f2f2"
       id="path162" />
    <path
       d="m 81.24139,896.19532 h 93.51731 v 20.407 c 0,0 -1.39957,-7.5647 -4.45724,-8.62271 -5.95629,-2.06108 -11.33116,5.55848 -17.20709,7.83837 -4.57011,1.77318 -9.09497,4.73156 -13.99259,4.52522 -4.9706,-0.20939 -8.94183,-6.99297 -13.76437,-5.77064 -3.20332,0.81196 -3.22817,6.30745 -6.21306,7.7255 -5.39934,2.56509 -12.14099,1.36419 -17.9325,-0.11583 -5.81627,-1.48639 -15.85703,-8.5381 -15.85703,-8.5381 l -4.09342,1.11093 z"
       fill="#dae5eb"
       id="path164" />
    <path
       d="M 32.73653,886.84359 H 61.8308"
       fill="none"
       stroke="#716c61"
       stroke-linecap="round"
       stroke-width="1.38544"
       id="path166" />
    <path
       d="M 32.73653,890.07629 H 47.74548"
       fill="none"
       stroke="#716c61"
       stroke-linecap="round"
       stroke-width="1.38544"
       id="path168" />
    <path
       d="m 168.20168,960.75274 h 5.43343"
       fill="none"
       stroke="#716c61"
       stroke-linecap="round"
       stroke-width="2.24719"
       id="path170" />
    <path
       d="m 129.2556,858.78839 h 21.70524 v 19.39613 H 129.2556 Z"
       fill="url(#pattern3419)"
       id="path172" />
    <path
       d="m 43.60356,896.19531 h 29.44063 v 14.08527 H 43.60356 Z"
       fill="url(#pattern3416)"
       id="path174" />
    <path
       d="m 41.6459,902.72442 c -1.3e-5,0.86033 -0.08777,1.62946 -0.26326,2.30739 -0.17549,0.67793 -0.41641,1.27672 -0.72267,1.79636 -0.30626,0.51964 -0.66418,0.96012 -1.07368,1.32145 -0.4095,0.36133 -0.85001,0.65729 -1.32146,0.88786 -0.47145,0.23057 -0.96013,0.39919 -1.46599,0.50587 -0.50586,0.10668 -1.00315,0.16002 -1.4918,0.16002 h -6.18401 v -0.85688 c 0.46802,-0.0964 0.81731,-0.20132 1.04787,-0.31488 0.23056,-0.11356 0.34585,-0.21852 0.34585,-0.31488 v -10.35486 l -1.39373,0.19615 -0.14453,-1.05303 c 0.35101,-0.0826 0.77085,-0.16173 1.25951,-0.23745 0.48866,-0.0757 0.99969,-0.1428 1.5331,-0.20132 0.53341,-0.0585 1.07024,-0.10322 1.61053,-0.13421 0.54029,-0.031 1.04099,-0.0464 1.50213,-0.0465 1.08744,2e-5 2.051,0.14283 2.89069,0.42845 0.83969,0.28562 1.54685,0.70031 2.12156,1.24402 0.57471,0.54371 1.01001,1.20791 1.30597,1.99251 0.29596,0.7846 0.44391,1.67592 0.44393,2.67389 z m -7.53644,-5.16194 -0.34585,0.005 c -0.12045,0.003 -0.23918,0.009 -0.35617,0.0155 v 10.15871 c -5e-6,0.11701 0.0069,0.22369 0.02065,0.32004 0.01375,0.0964 0.0671,0.17895 0.16002,0.24777 0.09292,0.0688 0.23916,0.12217 0.43877,0.16002 0.19961,0.0379 0.48178,0.0568 0.84656,0.0568 0.37165,0 0.77256,-0.0998 1.20273,-0.2994 0.43017,-0.1996 0.82762,-0.51619 1.19241,-0.94979 0.36479,-0.4336 0.66932,-0.99109 0.91366,-1.67247 0.24434,-0.68138 0.36649,-1.50729 0.3665,-2.47774 -1e-5,-1.83764 -0.37511,-3.22448 -1.1253,-4.16052 -0.75019,-0.93604 -1.85487,-1.40404 -3.31397,-1.40405 z"
       fill="#716c61"
       id="path176" />
    <path
       d="m 192.91568,985.67053 h 32.52705 v 14.84277 h -32.52705 z"
       fill="url(#pattern3411)"
       id="path178" />
    <path
       d="m 181.43793,999.44879 v -0.85688 c 0.46802,-0.0964 0.81731,-0.20132 1.04788,-0.31488 0.23057,-0.11356 0.34585,-0.21852 0.34585,-0.31488 v -10.02449 c 0,-0.0826 -0.1084,-0.18582 -0.3252,-0.30972 -0.2168,-0.1239 -0.57298,-0.234 -1.06853,-0.33036 v -0.85689 h 9.45669 l 0.42327,0.36134 c -0.007,0.17896 -0.0241,0.41297 -0.0516,0.70202 -0.0275,0.28905 -0.0602,0.58504 -0.0981,0.88786 -0.0379,0.30282 -0.0792,0.58847 -0.12389,0.85688 -0.0447,0.26841 -0.0878,0.46803 -0.12905,0.59879 h -0.89818 c -0.0206,-0.64007 -0.10152,-1.14422 -0.24261,-1.51245 -0.14109,-0.36823 -0.34241,-0.55232 -0.60394,-0.55233 h -3.44818 v 4.07793 h 3.75789 l 0.40263,0.39231 c -0.0619,0.1239 -0.13421,0.25294 -0.2168,0.38715 -0.0826,0.13421 -0.16863,0.26326 -0.25809,0.38714 -0.0895,0.12388 -0.17724,0.23746 -0.26326,0.34069 -0.086,0.10323 -0.16347,0.1824 -0.23229,0.23745 -0.10325,-0.10323 -0.21337,-0.18926 -0.33037,-0.2581 -0.117,-0.0688 -0.25294,-0.12732 -0.40779,-0.1755 -0.15485,-0.0482 -0.33725,-0.0826 -0.54717,-0.10324 -0.20992,-0.0206 -0.45941,-0.031 -0.74848,-0.031 h -1.15627 v 4.92449 c -1e-5,0.0413 0.0258,0.086 0.0774,0.13421 0.0516,0.0482 0.14108,0.0981 0.26842,0.1497 0.12734,0.0516 0.30111,0.10668 0.52135,0.16518 0.22024,0.0585 0.49899,0.11873 0.83624,0.18067 v 0.85688 z"
       fill="#716c61"
       id="path180" />
    <path
       d="m 195.85951,896.19531 h 26.81243 v 14.02628 h -26.81243 z"
       fill="url(#pattern3406)"
       id="path182" />
    <path
       d="m 170.555,832.64848 c 35.51237,12.78106 64.96889,71.41402 64.65394,122.39513 -6.96563,-46.80566 -20.26375,-72.81031 -57.39691,-69.27208 5.34402,-22.54095 3.47681,-43.11709 -7.25703,-53.12305 z"
       fill="url(#linearGradient3403)"
       id="path184"
       style="fill:url(#linearGradient3403)" />
    <path
       d="m 192.87868,896.669 c 0.0344,0.0275 0.0361,0.0981 0.005,0.21164 -0.0311,0.11354 -0.0809,0.25295 -0.1497,0.41812 -0.0688,0.16517 -0.15143,0.34242 -0.24777,0.53168 -0.0963,0.18926 -0.19444,0.36995 -0.29423,0.542 -0.0998,0.17205 -0.19445,0.32521 -0.28391,0.45941 -0.0895,0.1342 -0.16519,0.22886 -0.22712,0.28391 l -0.75365,-0.16518 c -0.22713,-0.37165 -0.45426,-0.68481 -0.68137,-0.93948 -0.22711,-0.25467 -0.46115,-0.4594 -0.70203,-0.61427 -0.24088,-0.15487 -0.48867,-0.26669 -0.74332,-0.33552 -0.25465,-0.0688 -0.52652,-0.10323 -0.81559,-0.10324 -0.17207,10e-6 -0.36822,0.0344 -0.58846,0.10324 -0.22024,0.0688 -0.44737,0.18412 -0.68137,0.34585 -0.234,0.16173 -0.46114,0.37511 -0.68138,0.64008 -0.22024,0.26497 -0.41812,0.59879 -0.59362,1.00141 -0.1755,0.40262 -0.31661,0.87582 -0.42328,1.41954 -0.10667,0.54372 -0.16003,1.17349 -0.16002,1.88927 -1e-5,0.90851 0.0998,1.68624 0.29939,2.3332 0.19959,0.64696 0.46801,1.17693 0.80526,1.58988 0.33725,0.41295 0.72267,0.71751 1.15628,0.91366 0.43361,0.19615 0.88785,0.29423 1.36275,0.29423 0.33036,0 0.62459,-0.0275 0.88269,-0.0826 0.2581,-0.0551 0.49382,-0.13077 0.70719,-0.22712 v -3.04555 c -1e-5,-0.0757 -0.009,-0.14969 -0.0258,-0.22196 -0.0168,-0.0723 -0.0723,-0.14281 -0.16518,-0.21164 -0.0929,-0.0688 -0.2409,-0.13765 -0.44393,-0.20648 -0.20303,-0.0688 -0.49383,-0.13765 -0.87237,-0.20648 v -0.85688 h 5.27551 v 0.85688 c -0.19961,0.0482 -0.36135,0.10324 -0.48522,0.16518 -0.12387,0.0619 -0.2237,0.13078 -0.2994,0.20648 -0.0757,0.0757 -0.12734,0.15314 -0.15486,0.23229 -0.0275,0.0792 -0.0413,0.16002 -0.0413,0.24261 v 3.00425 c -0.50932,0.41984 -0.9911,0.76569 -1.44535,1.03755 -0.45425,0.27186 -0.8827,0.48694 -1.28532,0.64524 -0.40262,0.1583 -0.7829,0.26843 -1.14079,0.33037 -0.35789,0.0619 -0.69171,0.0929 -1.00142,0.0929 -0.50931,0 -1.01346,-0.0568 -1.51245,-0.17034 -0.49899,-0.11354 -0.97389,-0.28563 -1.42469,-0.5162 -0.4508,-0.23057 -0.86721,-0.52135 -1.24919,-0.87236 -0.38198,-0.35101 -0.71235,-0.76053 -0.9911,-1.22855 -0.27875,-0.46802 -0.49726,-0.99625 -0.65556,-1.58471 -0.1583,-0.58846 -0.23745,-1.23714 -0.23745,-1.94606 0,-1.1425 0.18411,-2.16628 0.55233,-3.07135 0.36822,-0.90507 0.87752,-1.67246 1.52793,-2.30223 0.65041,-0.62977 1.42125,-1.1098 2.31255,-1.44018 0.8913,-0.33038 1.86002,-0.49553 2.90618,-0.49555 0.22711,2e-5 0.50414,0.0241 0.83107,0.0723 0.32693,0.0482 0.66244,0.11702 1.00658,0.20648 0.34414,0.0895 0.67964,0.1996 1.00658,0.33036 0.32694,0.13076 0.60049,0.27876 0.82075,0.44393 z"
       fill="#716c61"
       id="path186" />
    <path
       d="m 83.59378,885.96069 c -0.16339,0 -0.30775,0.0259 -0.46181,0.0573 -0.11758,0.024 -0.23608,0.0748 -0.34636,0.11545 -0.06188,0.0231 -0.11388,0.0582 -0.17318,0.0868 -0.08959,0.0425 -0.17724,0.0628 -0.25972,0.11546 l -0.11545,0.0868 c -0.04341,0.0314 -0.10326,0.0526 -0.14436,0.0868 -0.05265,0.0443 -0.09606,0.096 -0.14427,0.14427 -0.04821,0.0483 -0.10141,0.0938 -0.14436,0.14436 -0.05357,0.0637 -0.09763,0.13282 -0.14427,0.202 -0.06743,0.0989 -0.12127,0.20828 -0.17318,0.31754 -0.02679,0.0573 -0.06373,0.11379 -0.08682,0.17318 l -0.02863,0.0573 c -0.0351,0.0992 -0.06465,0.21271 -0.08682,0.31745 v 0.0286 c -0.02771,0.14519 -0.05727,0.27958 -0.05727,0.433 0,0.60931 0.25668,1.16792 0.63499,1.58744 l 0.05727,0.0573 c 0.03787,0.0397 0.07481,0.0785 0.11545,0.11545 0.07204,0.0656 0.15166,0.11731 0.23091,0.17318 0.07389,0.0517 0.15166,0.10133 0.23091,0.14437 l 0.14427,0.0868 c 0.09347,0.0425 0.18916,0.0563 0.28863,0.0868 l 0.17318,0.0573 c 0.16293,0.0351 0.31708,0.0573 0.49072,0.0573 0.17364,0 0.32974,-0.0212 0.49063,-0.0573 0.30812,-0.0628 0.58521,-0.17622 0.83708,-0.34636 0.02032,-0.0138 0.03787,-0.0425 0.05727,-0.0573 0.59158,-0.43032 0.98135,-1.1175 0.98135,-1.90498 0,-0.29603 -0.04526,-0.57588 -0.14436,-0.83709 -0.02217,-0.0591 -0.05911,-0.11628 -0.08682,-0.17318 -0.17078,-0.35929 -0.4317,-0.66298 -0.75045,-0.89472 l -0.11545,-0.0868 c -0.08036,-0.0517 -0.17281,-0.0739 -0.25972,-0.11545 -0.16782,-0.0794 -0.33223,-0.16413 -0.51954,-0.20209 -0.15415,-0.0314 -0.32733,-0.0573 -0.49072,-0.0573 z m 23.9566,0 c -0.16339,0 -0.33657,0.0259 -0.49064,0.0573 -1.07852,0.22065 -1.87616,1.16525 -1.87616,2.30907 0,1.30711 1.05968,2.36679 2.3668,2.36679 0.19839,0 0.39374,-0.036 0.57726,-0.0868 0.18352,-0.0508 0.35809,-0.11656 0.51954,-0.20209 0.74971,-0.39716 1.26999,-1.1707 1.26999,-2.07816 0,-0.901 -0.50014,-1.67832 -1.24108,-2.07816 -0.009,-0.009 -0.0212,0 -0.0286,0 -0.12395,-0.0656 -0.26877,-0.10086 -0.40409,-0.14427 -0.0388,-0.012 -0.0757,-0.0471 -0.11545,-0.0573 -0.18851,-0.0489 -0.37305,-0.0868 -0.57727,-0.0868 z m 24.99567,0 c -0.16339,0 -0.30775,0.0259 -0.46181,0.0573 -0.11758,0.024 -0.23608,0.0748 -0.34636,0.11545 -0.0619,0.0231 -0.11389,0.0582 -0.17318,0.0868 -0.0896,0.0425 -0.17725,0.0628 -0.25973,0.11546 l -0.11545,0.0868 c -0.0434,0.0314 -0.10326,0.0526 -0.14436,0.0868 -0.0526,0.0443 -0.0961,0.096 -0.14427,0.14427 -0.0482,0.0483 -0.10142,0.0938 -0.14437,0.14436 -0.0536,0.0637 -0.0976,0.13282 -0.14427,0.202 -0.0674,0.0989 -0.12127,0.20828 -0.17318,0.31754 -0.0268,0.0573 -0.0637,0.11379 -0.0868,0.17318 l -0.0286,0.0573 c -0.0351,0.0992 -0.0656,0.21271 -0.0868,0.31745 v 0.0286 c -0.0277,0.14519 -0.0573,0.27958 -0.0573,0.433 0,0.60931 0.25668,1.16792 0.635,1.58744 l 0.0573,0.0573 c 0.0379,0.0397 0.0748,0.0785 0.11545,0.11545 0.072,0.0656 0.15166,0.11731 0.23091,0.17318 0.0739,0.0517 0.15166,0.10133 0.23091,0.14437 l 0.14427,0.0868 c 0.0935,0.0425 0.18916,0.0563 0.28863,0.0868 l 0.17318,0.0573 c 0.16293,0.0351 0.31708,0.0573 0.49073,0.0573 0.17365,0 0.32973,-0.0212 0.49063,-0.0573 0.30812,-0.0628 0.58521,-0.17622 0.83708,-0.34636 0.0203,-0.0138 0.0379,-0.0425 0.0573,-0.0573 0.59158,-0.43032 0.98135,-1.1175 0.98135,-1.90498 0,-0.29603 -0.0453,-0.57588 -0.14436,-0.83709 -0.0222,-0.0591 -0.0591,-0.11628 -0.0868,-0.17318 -0.17078,-0.35929 -0.43171,-0.66298 -0.75045,-0.89472 l -0.11545,-0.0868 c -0.0804,-0.0517 -0.17281,-0.0739 -0.25973,-0.11545 -0.16782,-0.0794 -0.33223,-0.16413 -0.51954,-0.20209 -0.15415,-0.0314 -0.32733,-0.0573 -0.49072,-0.0573 z m 23.9566,0 c -1.30712,0 -2.3668,1.05959 -2.3668,2.3668 0,1.30721 1.05968,2.36679 2.3668,2.36679 0.19839,0 0.39374,-0.036 0.57726,-0.0868 1.02089,-0.26268 1.78953,-1.17734 1.78953,-2.28025 0,-0.901 -0.50014,-1.67832 -1.24108,-2.07816 -0.13087,-0.0711 -0.28918,-0.0981 -0.43299,-0.14427 -0.0388,-0.012 -0.0757,-0.0471 -0.11546,-0.0573 -0.18842,-0.0489 -0.37305,-0.0868 -0.57726,-0.0868 z"
       fill="none"
       stroke="#716c61"
       stroke-width="0.46181"
       id="path188" />
    <path
       d="M 89.32314,887.99812 H 99.94486"
       fill="none"
       stroke="#716c61"
       stroke-linecap="round"
       stroke-width="1.38544"
       id="path190" />
    <path
       d="m 109.90914,888.33159 a 2.3668,2.3668 0 0 1 -4.73359,0 2.3668,2.3668 0 1 1 4.73359,0 z"
       fill="#330080"
       opacity="0.25"
       id="path192" />
    <path
       d="m 107.54234,885.96476 c -1.30712,0 -2.3668,1.05967 -2.3668,2.36679 0,1.30712 1.05968,2.3668 2.3668,2.3668 0.39679,0 0.76837,-0.11601 1.09681,-0.28863 -1.12175,-0.0296 -2.02044,-0.94922 -2.02044,-2.07817 0,-1.13818 0.91467,-2.06283 2.04926,-2.07816 -0.33528,-0.18214 -0.71711,-0.28863 -1.12563,-0.28863 z"
       fill="#d4aa00"
       opacity="0.25"
       id="path194" />
    <path
       d="m 109.7232,888.12007 -0.66257,-0.0633 -0.28959,0.59929 -0.14456,-0.6497 -0.65944,-0.0902 0.57323,-0.33825 -0.11797,-0.65504 0.49883,0.44064 0.58654,-0.31461 -0.26494,0.61058 z"
       fill="#fae17a"
       opacity="0.25"
       id="path196" />
    <path
       d="m 108.04396,889.57436 -0.22451,-0.26095 -0.32272,0.11984 0.17881,-0.29417 -0.2137,-0.26988 0.33502,0.0792 0.19064,-0.28664 0.0282,0.34308 0.33152,0.0927 -0.31756,0.13289 z"
       fill="#fae17a"
       opacity="0.25"
       id="path198" />
    <path
       d="m 113.33746,887.99812 h 7.73538"
       fill="none"
       stroke="#716c61"
       stroke-linecap="round"
       stroke-width="1.38544"
       id="path200" />
    <path
       d="m 123.03555,887.99812 h 2.07816"
       fill="none"
       stroke="#716c61"
       stroke-linecap="round"
       stroke-width="1.38544"
       id="path202" />
    <path
       d="m 85.97498,888.33159 a 2.3668,2.3668 0 0 1 -4.73359,0 2.3668,2.3668 0 1 1 4.73359,0 z"
       fill="#5f8dd3"
       opacity="0.25"
       id="path204" />
    <path
       d="m 83.60819,885.97667 c -1.15324,0 -2.09885,0.81307 -2.30907,1.90498 h 4.61814 c -0.21022,-1.09191 -1.15583,-1.90498 -2.30907,-1.90498 z"
       fill="#ffcc00"
       opacity="0.25"
       id="path206" />
    <path
       d="m 85.16681,888.10069 a 1.03908,1.03908 0 0 1 -2.07816,0 1.03908,1.03908 0 1 1 2.07816,0 z"
       fill="#fff6d5"
       opacity="0.25"
       id="path208" />
    <path
       d="m 81.86198,889.91493 c 0.43318,0.48038 1.034,0.77935 1.7318,0.77935 0.69106,0 1.29908,-0.30701 1.7318,-0.77935 z"
       fill="#2ca02c"
       opacity="0.25"
       id="path210" />
    <path
       d="m 138.27541,887.99812 h 10.62172"
       fill="none"
       stroke="#716c61"
       stroke-linecap="round"
       stroke-width="1.38544"
       id="path212" />
    <path
       d="m 162.28973,887.99812 h 7.73538"
       fill="none"
       stroke="#716c61"
       stroke-linecap="round"
       stroke-width="1.38544"
       id="path214" />
    <path
       d="m 171.98782,887.99812 h 2.07816"
       fill="none"
       stroke="#716c61"
       stroke-linecap="round"
       stroke-width="1.38544"
       id="path216" />
    <path
       d="m 134.92725,888.33159 a 2.3668,2.3668 0 0 1 -4.73359,0 2.3668,2.3668 0 1 1 4.73359,0 z"
       fill="#5f8dd3"
       opacity="0.25"
       id="path218" />
    <path
       d="m 132.56046,885.97667 c -1.15324,0 -2.09885,0.81307 -2.30907,1.90498 h 4.61814 c -0.21022,-1.09191 -1.15583,-1.90498 -2.30907,-1.90498 z"
       fill="#ffcc00"
       opacity="0.25"
       id="path220" />
    <path
       d="m 134.11908,888.10069 a 1.03908,1.03908 0 0 1 -2.07816,0 1.03908,1.03908 0 1 1 2.07816,0 z"
       fill="#fff6d5"
       opacity="0.25"
       id="path222" />
    <path
       d="m 130.81425,889.91493 c 0.43318,0.48038 1.034,0.77935 1.7318,0.77935 0.69106,0 1.29908,-0.30701 1.7318,-0.77935 z"
       fill="#2ca02c"
       opacity="0.25"
       id="path224" />
    <path
       d="m 158.86141,888.33159 a 2.3668,2.3668 0 0 1 -4.7336,0 2.3668,2.3668 0 1 1 4.7336,0 z"
       fill="#330080"
       opacity="0.25"
       id="path226" />
    <path
       d="m 156.49461,885.96476 c -1.30712,0 -2.3668,1.05967 -2.3668,2.36679 0,1.30712 1.05968,2.3668 2.3668,2.3668 0.39679,0 0.76837,-0.11601 1.09681,-0.28863 -1.12175,-0.0296 -2.02044,-0.94922 -2.02044,-2.07817 0,-1.13818 0.91467,-2.06283 2.04926,-2.07816 -0.33528,-0.18214 -0.71711,-0.28863 -1.12563,-0.28863 z"
       fill="#d4aa00"
       opacity="0.25"
       id="path228" />
    <path
       d="m 158.67547,888.12007 -0.66257,-0.0633 -0.28959,0.59929 -0.14456,-0.6497 -0.65944,-0.0902 0.57323,-0.33825 -0.11797,-0.65504 0.49883,0.44064 0.58654,-0.31461 -0.26494,0.61058 z"
       fill="#fae17a"
       opacity="0.25"
       id="path230" />
    <path
       d="m 156.99623,889.57436 -0.22451,-0.26095 -0.32272,0.11984 0.17881,-0.29417 -0.2137,-0.26988 0.33502,0.0792 0.19064,-0.28664 0.0282,0.34308 0.33152,0.0927 -0.31756,0.13289 z"
       fill="#fae17a"
       opacity="0.25"
       id="path232" />
    <path
       d="m 193.70748,847.97645 c 1.41777,9.79808 1.40059,13.02376 1.35579,15.57205 -0.0452,0.58955 0.44953,1.16728 1.03899,1.21263 0.58946,0.0453 1.1671,-0.4499 1.21236,-1.03945 0.20966,-2.81251 0.0933,-4.02689 -0.98053,-13.00321 -0.87569,-0.93254 -1.7318,-1.8625 -2.62661,-2.74202 z m 5.68613,6.11903 c 0.88262,8.34845 0.63509,5.93648 0.60525,10.40555 -0.13143,0.61459 0.35763,1.28773 0.98274,1.35266 0.62511,0.0649 1.242,-0.49331 1.23979,-1.12175 0.74666,-7.06806 0.28115,-0.24762 -0.31671,-7.60581 -0.82582,-1.03305 -1.66401,-2.04475 -2.51107,-3.03065 z m 5.54177,6.92721 c 0.38155,3.99437 0.191,3.98505 -0.11629,5.38333 -0.24264,0.57579 0.10529,1.32383 0.70196,1.5093 0.59667,0.18547 1.3073,-0.23359 1.43393,-0.84549 0.18556,-1.01997 0.81205,-1.1187 0.52037,-2.41039 -0.83302,-1.2348 -1.67906,-2.4503 -2.53997,-3.63675 z m 5.10877,7.61989 c 0.0148,4.4094 -0.37066,9.01211 -1.32772,13.91214 -0.18242,0.59898 0.2431,1.3086 0.8574,1.42978 0.6143,0.12118 1.27738,-0.37342 1.33622,-0.99678 0.7352,-3.76425 1.14502,-7.36085 1.29889,-10.82381 -0.70722,-1.19397 -1.43245,-2.36245 -2.16479,-3.52133 z m 4.09859,6.84066 c -0.0231,3.40459 -0.31431,6.80779 -1.01017,10.18873 -0.1209,0.58188 0.29843,1.22131 0.88031,1.34221 0.58188,0.1209 1.22122,-0.29851 1.34212,-0.8804 0.45886,-2.22927 0.75867,-4.44634 0.92363,-6.66739 -0.69965,-1.34462 -1.40511,-2.67381 -2.13589,-3.98315 z m 3.63679,6.95603 c 0.0554,2.60223 0,5.15643 -0.23091,7.61993 -0.0526,0.58946 0.43531,1.17384 1.02467,1.22676 0.58936,0.0529 1.17384,-0.4353 1.22667,-1.02467 0.0966,-1.0401 0.15767,-2.08629 0.20209,-3.14615 -0.7196,-1.57932 -1.46081,-3.13471 -2.22252,-4.67587 z m 3.86769,8.39929 c -0.0489,1.00823 -0.0877,2.05525 -0.14427,3.0306 -0.0305,0.83967 1.11011,1.44687 1.78953,0.95254 -0.53257,-1.34046 -1.08222,-2.66393 -1.64526,-3.98314 z"
       fill="#716c61"
       opacity="0.75"
       id="path234" />
    <path
       d="m 205.89345,882.85666 -0.84798,-0.12257 c -0.0286,-0.47696 -0.0822,-0.83773 -0.16182,-1.08212 -0.0796,-0.24439 -0.1668,-0.37352 -0.26222,-0.38737 -3.0161,-1.41426 -6.28186,-2.70207 -9.92142,-2.04113 -0.0813,-0.012 -0.19941,0.0804 -0.3531,0.27756 -0.15369,0.19716 -0.31348,0.53367 -0.47974,1.01026 l -0.84807,-0.12247 c 0.601,-2.2036 0.5841,-3.78937 0.81196,-5.61982 l 0.84817,0.12257 c 0.0286,0.47696 0.0841,0.83791 0.1669,1.08286 0.0828,0.24495 0.17189,0.37425 0.2673,0.38802 1.4064,-0.10382 2.81281,0.45497 4.21922,0.5587 l 0.72348,-5.00671 c -1.4065,-0.12598 -2.81291,-0.63259 -4.21932,-0.5587 -0.0813,-0.012 -0.19941,0.0804 -0.3531,0.27764 -0.15369,0.19724 -0.31348,0.53358 -0.47973,1.01026 l -0.84817,-0.12256 c 0.58807,-1.23849 0.8489,-3.13147 0.81205,-5.61982 l 0.84808,0.12257 c 0.0286,0.47705 0.084,0.83801 0.1669,1.08286 0.0829,0.24485 0.17198,0.37435 0.26729,0.38811 3.21155,-0.19184 6.50197,0.77668 9.92152,2.04122 0.0813,0.012 0.19766,-0.0813 0.34784,-0.27838 0.15018,-0.19708 0.30849,-0.53432 0.47474,-1.01101 l 0.84799,0.12257 c -0.2963,2.44549 -0.4802,3.53648 -0.81196,5.61972 l -0.84808,-0.12247 c -0.0286,-0.47706 -0.0822,-0.83773 -0.16173,-1.08222 -0.0795,-0.24449 -0.1668,-0.37351 -0.26221,-0.38728 -1.37436,-0.59749 -2.79287,-1.10669 -4.37384,-1.29086 l -0.72339,5.00671 c 1.45795,0.24033 2.91589,0.44427 4.37384,1.29086 0.0813,0.012 0.19747,-0.0794 0.34719,-0.27321 0.14972,-0.19381 0.30822,-0.53265 0.47539,-1.01617 l 0.84799,0.12256 c -0.009,0.79294 -0.47401,3.69692 -0.81197,5.61982 z"
       fill="#716c61"
       opacity="0.75"
       id="path236" />
    <text
       xml:space="preserve"
       style="font-style:normal;font-weight:normal;font-size:4.67499px;line-height:1.25;font-family:sans-serif;fill:#000000;fill-opacity:1;stroke:none;stroke-width:0.116875"
       x="22.296522"
       y="1169.563"
       id="text2007"
       transform="scale(1.3814345,0.7238852)"><tspan
         sodipodi:role="line"
         id="tspan2005"
         style="font-style:normal;font-variant:normal;font-weight:bold;font-stretch:normal;font-size:14.025px;font-family:serif;-inkscape-font-specification:'serif, Bold';font-variant-ligatures:normal;font-variant-caps:normal;font-variant-numeric:normal;font-variant-east-asian:normal;fill:#716c61;fill-opacity:1;stroke-width:0.116875"
         x="22.296522"
         y="1169.563">YYYY-MM-DD</tspan></text>
  </g>
</svg>
