<svg xmlns="http://www.w3.org/2000/svg" xmlns:xlink="http://www.w3.org/1999/xlink" width="1387.389" height="2281.234"><defs><pattern id="r" width="87.624" height="115.004" patternTransform="translate(6.404 223.373)" patternUnits="userSpaceOnUse"><path stroke="#716c61" stroke-linecap="round" stroke-width="4" d="M2.096 1.989h77.355M2.096 11.572h75.965M2.096 21.156h78.596M2.096 30.739h31M2.096 40.322h81.673M2.096 49.906h83.373M2.096 59.49h78.62M2.096 69.073h75.196M2.096 78.656h83.5M2.096 88.24h80.426M2.096 97.823h44.086M2.096 107.406h68.278"/></pattern><pattern xlink:href="#b" id="U" patternTransform="matrix(.63376 0 0 .49797 -151.47 667.353)"/><pattern xlink:href="#c" id="Y" patternTransform="matrix(.63376 0 0 .49797 -161.184 734.743)"/><pattern xlink:href="#d" id="Z" patternTransform="matrix(.63376 0 0 .49797 -146.406 692.257)"/><pattern xlink:href="#e" id="aa" patternTransform="matrix(.63376 0 0 .49797 -148.253 739.823)"/><pattern xlink:href="#f" id="ab" patternTransform="matrix(.63376 0 0 .49797 -154.257 696.875)"/><pattern xlink:href="#g" id="ac" patternTransform="matrix(.63376 0 0 .49797 -161.184 734.743)"/><pattern xlink:href="#h" id="ad" patternTransform="matrix(.63376 0 0 .49797 -126.216 693.642)"/><pattern xlink:href="#i" id="ae" patternTransform="matrix(.63376 0 0 .49797 -146.406 692.257)"/><pattern xlink:href="#j" id="af" patternTransform="matrix(.63376 0 0 .49797 -161.184 734.743)"/><pattern xlink:href="#k" id="ag" patternTransform="matrix(.63376 0 0 .49797 236.734 844.599)"/><pattern xlink:href="#l" id="b" patternTransform="matrix(.68616 0 0 .53915 1221.19 771.894)"/><pattern xlink:href="#m" id="l" patternTransform="matrix(.68616 0 0 .53915 1221.19 771.894)"/><pattern xlink:href="#n" id="m" patternTransform="matrix(.68616 0 0 .53915 -8.455 272.06)"/><pattern xlink:href="#o" id="n" patternTransform="matrix(.68616 0 0 .53915 -8.455 272.06)"/><pattern xlink:href="#p" id="o" patternTransform="matrix(.68616 0 0 .53915 171.545 226.56)"/><pattern xlink:href="#q" id="p" patternTransform="matrix(.68616 0 0 .53915 6.545 226.56)"/><pattern xlink:href="#r" id="q" patternTransform="matrix(.54351 0 0 .45219 6.404 226.56)"/><pattern xlink:href="#s" id="c" patternTransform="matrix(.68616 0 0 .53915 1209.904 863.063)"/><pattern xlink:href="#t" id="s" patternTransform="matrix(.68616 0 0 .53915 1209.904 863.063)"/><pattern xlink:href="#u" id="t" patternTransform="matrix(.68616 0 0 .53915 -8.455 272.06)"/><pattern xlink:href="#v" id="u" patternTransform="matrix(.68616 0 0 .53915 171.545 226.56)"/><pattern xlink:href="#q" id="v" patternTransform="matrix(.68616 0 0 .53915 6.545 226.56)"/><pattern xlink:href="#w" id="d" patternTransform="matrix(.68616 0 0 .53915 1225.904 817.063)"/><pattern xlink:href="#q" id="w" patternTransform="matrix(.68616 0 0 .53915 1225.904 817.063)"/><pattern xlink:href="#x" id="e" patternTransform="matrix(.68616 0 0 .53915 1223.904 868.563)"/><pattern xlink:href="#y" id="x" patternTransform="matrix(.68616 0 0 .53915 1223.904 868.563)"/><pattern xlink:href="#q" id="y" patternTransform="matrix(.68616 0 0 .53915 6.545 226.56)"/><pattern xlink:href="#z" id="f" patternTransform="matrix(.68616 0 0 .53915 1217.404 822.063)"/><pattern xlink:href="#A" id="z" patternTransform="matrix(.68616 0 0 .53915 1217.404 822.063)"/><pattern xlink:href="#q" id="A" patternTransform="matrix(.68616 0 0 .53915 6.545 226.56)"/><pattern xlink:href="#B" id="g" patternTransform="matrix(.68616 0 0 .53915 1209.904 863.063)"/><pattern xlink:href="#C" id="B" patternTransform="matrix(.68616 0 0 .53915 1209.904 863.063)"/><pattern xlink:href="#D" id="C" patternTransform="matrix(.68616 0 0 .53915 171.545 226.56)"/><pattern xlink:href="#q" id="D" patternTransform="matrix(.68616 0 0 .53915 6.545 226.56)"/><pattern xlink:href="#E" id="h" patternTransform="matrix(.68616 0 0 .53915 1247.763 818.563)"/><pattern xlink:href="#F" id="E" patternTransform="matrix(.68616 0 0 .53915 1247.763 818.563)"/><pattern xlink:href="#q" id="F" patternTransform="matrix(.68616 0 0 .53915 7.545 226.06)"/><pattern xlink:href="#G" id="i" patternTransform="matrix(.68616 0 0 .53915 1225.904 817.063)"/><pattern xlink:href="#H" id="G" patternTransform="matrix(.68616 0 0 .53915 1225.904 817.063)"/><pattern xlink:href="#q" id="H" patternTransform="matrix(.68616 0 0 .53915 7.545 226.06)"/><pattern xlink:href="#I" id="j" patternTransform="matrix(.68616 0 0 .53915 1209.904 863.063)"/><pattern xlink:href="#J" id="I" patternTransform="matrix(.68616 0 0 .53915 1209.904 863.063)"/><pattern xlink:href="#K" id="J" patternTransform="matrix(.68616 0 0 .53915 -8.455 272.06)"/><pattern xlink:href="#L" id="K" patternTransform="matrix(.68616 0 0 .53915 171.545 226.56)"/><pattern xlink:href="#q" id="L" patternTransform="matrix(.68616 0 0 .53915 6.545 226.56)"/><pattern xlink:href="#M" id="k" patternTransform="matrix(.68616 0 0 .53915 1640.725 982.002)"/><pattern xlink:href="#N" id="M" patternTransform="matrix(.68616 0 0 .53915 1640.725 982.002)"/><pattern xlink:href="#O" id="N" patternTransform="matrix(.68616 0 0 .53915 -8.455 272.06)"/><pattern xlink:href="#P" id="O" patternTransform="matrix(.68616 0 0 .53915 -8.455 272.06)"/><pattern xlink:href="#Q" id="P" patternTransform="matrix(.68616 0 0 .53915 171.545 226.56)"/><pattern xlink:href="#q" id="Q" patternTransform="matrix(.68616 0 0 .53915 6.545 226.56)"/><linearGradient id="R" x2="0" y1="1160.024" y2="968.846" gradientUnits="userSpaceOnUse"><stop offset="0"/><stop offset="1" stop-opacity="0"/></linearGradient><linearGradient id="a"><stop offset="0" stop-color="#f5f5f2"/><stop offset=".104" stop-color="#f6f6f4"/><stop offset=".884" stop-color="#f6f6f4"/><stop offset=".916" stop-color="#fcfbf7"/><stop offset="1" stop-color="#d7d7cf"/></linearGradient><linearGradient id="ah" x1="221.684" x2="185.072" y1="857.568" y2="885.277" gradientUnits="userSpaceOnUse"><stop offset="0" stop-color="#e3e3d9"/><stop offset=".5" stop-color="#fff"/><stop offset="1" stop-color="#f9f9f4"/></linearGradient><linearGradient id="W" x2="0" y1="312.362" y2="342.362" gradientTransform="matrix(.47772 .79049 -.55334 .33441 282.535 616.156)" gradientUnits="userSpaceOnUse"><stop offset="0" stop-color="#e5e5e0"/><stop offset="1" stop-color="#fff" stop-opacity="0"/></linearGradient><linearGradient xlink:href="#a" id="V" x2="0" y1="832.188" y2="1016.543" gradientUnits="userSpaceOnUse"/><linearGradient xlink:href="#a" id="T" x1="505.23" x2="163.632" y1="619.418" y2="863.717" gradientUnits="userSpaceOnUse"/><radialGradient id="X" cx="348" cy="471.362" r="22.5" gradientTransform="matrix(2.0977 .75804 -.34942 2.05291 -369.29 -349.546)" gradientUnits="userSpaceOnUse"><stop offset="0" stop-color="#dcdcd5"/><stop offset="1" stop-color="#fff" stop-opacity="0"/></radialGradient><filter id="S" width="1.045" height="1.052" x="-.022" y="-.026"><feGaussianBlur stdDeviation="2.16"/></filter></defs><path fill="url(#R)" d="M1406.922 969.065v198.594h232.156l-.03-68.781c-.13-10.335-1.358-20.905-3.532-31.375.113-30.96.522-62.062 1.062-94.938-18.374-.91-40.321-1.195-61.968-1.156a54.16 54.16 0 0 0-5.532-2.344z" filter="url(#S)" opacity=".75" style="fill:url(#R)" transform="matrix(5.72067 0 0 10.91711 -8018.89 -10522.81)"/><path fill="url(#T)" d="M232.904 835.883c-1.002 60.873-1.522 115.206-.303 174.969l-126.257-18.94L85.44 836.569s91.589-3.456 147.463-.686z" style="fill:url(#T)" transform="matrix(6.19368 0 0 11.81979 -99.119 -9785.19)"/><path fill="url(#U)" d="M192.67 842.357h42.486v71.173H192.67z" opacity=".75" transform="matrix(6.19315 .1554 -.08143 11.81877 -99.119 -9785.19)"/><path fill="url(#V)" d="M20.787 832.65v183.427h214.426V952.98c-3.737-61.73-38.93-103.511-64.654-120.331Z" style="fill:url(#V)" transform="matrix(6.19368 0 0 11.81979 -99.119 -9785.19)"/><path fill="url(#W)" d="m154.742 832.65 78.566 130 1.905-1.154v-8.515c-.727-12.009-2.648-23.25-5.455-33.712l-46.355-76.69c-4.413-3.927-8.746-7.25-12.844-9.929z" style="fill:url(#W)" transform="matrix(6.19368 0 0 11.81979 -99.119 -9785.19)"/><path fill="url(#X)" d="M173.705 834.815c-12.759 4.348-22.356 15.046-24.909 30.047-4.342 25.51 13.303 53.82 39.37 63.24 16.156 5.837 31.743 3.036 42.313-6.004-10.641-42.655-36.098-72.554-56.774-87.283z" style="fill:url(#X)" transform="matrix(6.19368 0 0 11.81979 -99.119 -9785.19)"/><path fill="none" stroke="#716c61" stroke-linecap="round" stroke-width="1.385" d="M183.403 886.844h29.095" transform="matrix(6.19368 0 0 11.81979 -99.119 -9785.19)"/><path fill="url(#Y)" d="M182.956 909.747h42.487v71.173h-42.487Z" transform="matrix(6.19368 0 0 11.81979 -99.119 -9785.19)"/><path d="M987.862 299.642h94.646v285.144h-94.646z" opacity=".35"/><path fill="#716c61" d="M89.34 622.058H1144.8v38.21H89.34ZM93.808 578.39v-17.698c5.438-1.28 9.311-3.27 11.62-5.97 2.31-2.701 3.464-5.047 3.464-7.037V343.416c-2.384-4.264-4.86-7.818-7.43-10.661-2.57-2.843-5.121-4.62-7.654-5.33v-17.698h33.743c1.118 0 2.03.178 2.738.533.707.354 1.434 1.101 2.178 2.239.745 1.137 1.546 2.807 2.403 5.01l3.408 8.85L204.98 503.12V340.644c0-.852-.223-1.883-.67-3.092-.447-1.208-1.248-2.416-2.402-3.624-1.155-1.209-2.7-2.381-4.637-3.519-1.937-1.137-4.395-2.132-7.374-2.985v-17.697h48.044v17.697c-5.363 1.422-9.218 3.483-11.564 6.184-2.346 2.7-3.52 5.046-3.52 7.036v244.142c-4.097-.569-7.802-1.67-11.117-3.305-3.314-1.635-6.257-3.59-8.827-5.864a38.062 38.062 0 0 1-6.648-7.676 46.57 46.57 0 0 1-4.58-8.955l-64.917-171.432v160.131c0 .853.242 1.883.726 3.092.485 1.208 1.323 2.416 2.514 3.625 1.192 1.208 2.738 2.38 4.637 3.518 1.9 1.137 4.302 2.061 7.207 2.772v17.697zM359.953 509.305c-.298 6.112-.633 12.758-1.006 19.936-.372 7.178-.782 14.073-1.229 20.683-.447 6.61-.875 12.473-1.285 17.59-.41 5.118-.763 8.743-1.061 10.875H246.657v-17.697c5.065-1.99 8.845-4.158 11.34-6.504 2.496-2.345 3.744-4.513 3.744-6.503v-207.04c0-1.706-1.173-3.839-3.52-6.397-2.346-2.56-6.2-4.833-11.564-6.824v-17.697h101.229l4.804 7.463c-.149 3.696-.372 8.529-.67 14.499-.298 5.97-.67 12.083-1.117 18.337-.447 6.255-.913 12.154-1.397 17.698-.484 5.543-.95 9.666-1.397 12.367h-9.497c-.372-13.22-1.304-23.632-2.793-31.238-1.49-7.605-3.613-11.407-6.369-11.407h-36.424v84.223h44.134l4.022 8.103a464.59 464.59 0 0 1-2.179 7.036c-.856 2.701-1.75 5.438-2.681 8.21a125.818 125.818 0 0 1-2.794 7.569c-.93 2.274-1.806 3.98-2.625 5.117-1.118-2.132-2.328-3.909-3.632-5.33a19.616 19.616 0 0 0-4.469-3.625c-1.676-.995-3.65-1.706-5.922-2.132-2.272-.427-4.972-.64-8.1-.64h-15.754v91.047c0 2.132.26 4.016.782 5.65.521 1.635 1.601 3.057 3.24 4.265 1.639 1.208 3.948 2.132 6.927 2.772 2.98.64 6.928.96 11.844.96h9.944c3.426 0 6.35-.89 8.771-2.666 2.42-1.776 4.562-4.584 6.425-8.422 1.862-3.838 3.556-8.742 5.083-14.712 1.527-5.97 3.073-13.15 4.637-21.536zM559.282 327.424c-3.277 1.28-5.996 2.488-8.156 3.625s-3.874 2.24-5.14 3.305c-1.266 1.066-2.179 2.097-2.737 3.092a7.447 7.447 0 0 0-.95 3.198L516.712 565.81c-.372 2.985-1.229 5.58-2.57 7.783-1.34 2.203-2.867 4.051-4.58 5.544-1.713 1.492-3.446 2.7-5.196 3.624-1.75.925-3.184 1.6-4.301 2.026l-38.66-188.49-32.067 169.513c-.521 2.985-1.47 5.544-2.849 7.676-1.378 2.132-2.942 3.945-4.692 5.437-1.75 1.493-3.557 2.701-5.42 3.625-1.862.925-3.538 1.67-5.027 2.239L382.3 342.35c-.373-3.553-1.714-6.468-4.023-8.742-2.31-2.275-6.108-4.336-11.397-6.184v-17.697h56.872v17.697c-3.65.712-6.462 1.6-8.436 2.666-1.974 1.066-3.408 2.239-4.302 3.518-.893 1.279-1.378 2.665-1.452 4.158a31.675 31.675 0 0 0 .112 4.584l18.1 144.353 31.397-176.976h12.849l36.76 176.976 16.983-146.059c.149-1.705-.187-3.198-1.006-4.478-.819-1.28-2.011-2.416-3.575-3.411-1.564-.995-3.427-1.919-5.587-2.772l-7.039-2.559v-17.697h50.726zM670.232 498.004c0 6.397-.522 12.935-1.564 19.616a133.337 133.337 0 0 1-4.637 19.724c-2.049 6.467-4.656 12.58-7.822 18.337-3.165 5.757-6.89 10.768-11.173 15.032-4.283 4.265-9.106 7.676-14.469 10.235-5.363 2.559-11.322 3.838-17.877 3.838-2.756 0-5.96-.498-9.609-1.493-3.65-.995-7.374-2.38-11.173-4.157-3.799-1.777-7.505-3.945-11.117-6.504-3.613-2.559-6.723-5.472-9.33-8.742-.372-.284-.67-1.741-.894-4.371-.223-2.63-.372-5.935-.447-9.915a720.8 720.8 0 0 1-.112-13.433c0-4.975.112-10.057.336-15.246.223-5.188.521-10.27.893-15.245.373-4.975.82-9.453 1.341-13.433l9.05 1.066c1.714 8.387 3.78 16.205 6.202 23.455 2.42 7.25 5.14 13.54 8.156 18.87 3.017 5.33 6.275 9.524 9.776 12.58 3.501 3.056 7.151 4.584 10.95 4.584 3.352 0 6.536-.78 9.553-2.345 3.017-1.564 5.68-3.945 7.989-7.143 2.31-3.199 4.134-7.25 5.475-12.154 1.34-4.904 2.011-10.768 2.011-17.59 0-8.672-1.006-16.17-3.017-22.496-2.01-6.326-4.674-11.94-7.989-16.845a78.285 78.285 0 0 0-11.34-13.326 826.362 826.362 0 0 0-13.017-11.94 250.58 250.58 0 0 1-13.017-12.581c-4.245-4.407-8.026-9.488-11.34-15.246-3.315-5.757-5.978-12.402-7.99-19.936-2.01-7.534-3.016-16.49-3.016-26.866 0-4.407.466-9.24 1.397-14.5.93-5.26 2.346-10.518 4.245-15.778a89.54 89.54 0 0 1 7.207-15.246c2.905-4.904 6.332-9.24 10.28-13.006 3.947-3.768 8.454-6.788 13.519-9.062 5.065-2.275 10.689-3.412 16.871-3.412 4.246 0 8.38.498 12.403 1.493 4.022.995 7.765 2.345 11.229 4.05 3.463 1.706 6.517 3.768 9.162 6.184 2.644 2.416 4.636 5.047 5.977 7.89.373.568.465 1.954.28 4.157-.186 2.204-.54 4.798-1.062 7.783a207.56 207.56 0 0 1-1.955 9.702 253.404 253.404 0 0 1-2.458 10.021c-.857 3.199-1.695 6.042-2.514 8.53-.82 2.487-1.527 4.229-2.123 5.223l-8.492-1.279c-1.49-7.25-3.277-13.326-5.363-18.23-2.085-4.905-4.302-8.85-6.648-11.835-2.346-2.985-4.73-5.081-7.15-6.29-2.422-1.208-4.675-1.812-6.76-1.812-3.576 0-6.63.853-9.162 2.559-2.533 1.705-4.619 4.016-6.257 6.93-1.64 2.913-2.831 6.254-3.576 10.02a59.765 59.765 0 0 0-1.117 11.622c0 6.68 1.024 12.651 3.072 17.91 2.049 5.26 4.749 10.093 8.101 14.5 3.352 4.406 7.15 8.671 11.397 12.793l13.072 12.367c4.47 4.265 8.827 8.885 13.073 13.86s8.044 10.626 11.396 16.951c3.352 6.326 6.052 13.54 8.101 21.642 2.049 8.103 3.073 17.414 3.073 27.933z"/><path fill="url(#Z)" d="M30.557 910.05h42.487v104.831H30.557Z" transform="matrix(6.19368 0 0 11.81979 -99.119 -9785.19)"/><path fill="url(#aa)" d="M81.357 967.546h42.487v47.796H81.357Z" transform="matrix(6.19368 0 0 11.81979 -99.119 -9785.19)"/><path fill="url(#ab)" d="M132.156 967.546h42.487v47.334h-42.487z" transform="matrix(6.19368 0 0 11.81979 -99.119 -9785.19)"/><path fill="url(#ac)" d="M182.956 999.875h42.487v15.006h-42.487Z" transform="matrix(6.19368 0 0 11.81979 -99.119 -9785.19)"/><path fill="none" stroke="#716c61" stroke-linecap="round" stroke-width="2.247" d="M82.481 960.753h62.698" transform="matrix(6.19368 0 0 11.81979 -99.119 -9785.19)"/><path fill="#a3c093" d="M404.065 807.648H983.28v725.986H404.065Z"/><path fill="#bedaae" d="M404.065 807.648H983.28v477.622s-118.659 44.693-154.547 24.564c-35.888-20.129-144.94 158.487-194.675 126.856-49.735-31.63-59.77-133.762-115.67-140.502-55.9-6.74-114.324 98.253-114.324 98.253z"/><path fill="#b3b3b3" d="M404.065 807.648H983.28v394.046s-82.546-121.382-131.148-121.583c-66.943-.273-114.66 149.145-181.019 165.97-62.197 15.771-122.339-62.692-185.064-65.616-27.57-1.285-81.985 21.229-81.985 21.229z"/><path fill="#f2f2f2" d="M404.065 807.648H983.28v284.875s-6.123-105.61-27.606-123.753c-34.4-29.051-71.66 44.106-106.576 70.814-29.465 22.537-55.011 70.792-86.665 75.321-29.467 4.216-57.093-63.463-85.253-46.374-19.505 11.838-19.2 78.213-38.481 91.314-35.657 24.228-74.959-23.394-111.069-45.037-33.9-20.32-62.908-86.747-98.213-79.085-10.36 2.25-25.353 34.966-25.353 34.966z"/><path fill="#dae5eb" d="M404.065 807.648H983.28v241.206s-8.668-89.413-27.606-101.918c-36.892-24.362-70.182 65.7-106.576 92.648-28.306 20.958-56.331 55.926-86.665 53.487-30.787-2.475-55.383-82.656-85.253-68.208-19.84 9.597-19.994 74.553-38.481 91.314-33.442 30.319-75.198 16.124-111.069-1.37-36.024-17.568-98.213-100.918-98.213-100.918l-25.353 13.131z"/><path fill="none" stroke="#716c61" stroke-linecap="round" stroke-width="1.385" d="M32.737 886.844H61.83M32.737 890.076h15.008" transform="matrix(6.19368 0 0 11.81979 -99.119 -9785.19)"/><path fill="none" stroke="#716c61" stroke-linecap="round" stroke-width="2.247" d="M168.202 960.753h5.433" transform="matrix(6.19368 0 0 11.81979 -99.119 -9785.19)"/><path fill="url(#ad)" d="M129.256 858.788h21.705v19.397h-21.705Z" transform="matrix(6.19368 0 0 11.81979 -99.119 -9785.19)"/><path fill="url(#ae)" d="M43.604 896.195h29.44v14.086h-29.44Z" transform="matrix(6.19368 0 0 11.81979 -99.119 -9785.19)"/><path fill="#716c61" d="M158.823 884.82c0 10.17-.544 19.26-1.63 27.274-1.088 8.013-2.58 15.09-4.477 21.232-1.897 6.142-4.114 11.349-6.65 15.62-2.536 4.27-5.265 7.768-8.185 10.494-2.92 2.725-5.946 4.718-9.08 5.979-3.133 1.26-6.213 1.891-9.24 1.891H81.26v-10.128c2.899-1.14 5.062-2.38 6.49-3.722s2.142-2.582 2.142-3.721V827.346l-8.632 2.319-.895-12.447c2.174-.976 4.774-1.911 7.8-2.806a120.85 120.85 0 0 1 9.496-2.38c3.304-.691 6.629-1.22 9.975-1.586 3.347-.367 6.448-.549 9.304-.55 6.735 0 12.703 1.688 17.904 5.064 5.2 3.376 9.58 8.278 13.14 14.704 3.56 6.427 6.256 14.278 8.09 23.551 1.832 9.274 2.749 19.81 2.749 31.605zm-46.679-61.012-2.142.059a37.99 37.99 0 0 0-2.206.183v120.074c0 1.383.043 2.644.128 3.783.085 1.139.416 2.115.991 2.928.576.813 1.482 1.444 2.718 1.892 1.236.447 2.984.67 5.243.67 2.302 0 4.785-1.179 7.45-3.538 2.664-2.36 5.126-6.101 7.385-11.226 2.26-5.125 4.145-11.715 5.659-19.769 1.513-8.053 2.27-17.815 2.27-29.286 0-21.72-2.323-38.113-6.97-49.176-4.646-11.064-11.488-16.596-20.526-16.596z"/><path fill="url(#af)" d="M192.916 985.67h32.527v14.843h-32.527z" transform="matrix(6.19368 0 0 11.81979 -99.119 -9785.19)"/><path fill="#716c61" d="M1024.65 2028.082v-10.128c2.9-1.14 5.063-2.38 6.49-3.722 1.429-1.342 2.143-2.583 2.143-3.722v-118.487c0-.976-.672-2.196-2.014-3.66-1.343-1.465-3.55-2.767-6.619-3.906v-10.128h58.572l2.622 4.271c-.044 2.115-.15 4.881-.32 8.298-.17 3.416-.373 6.915-.607 10.494a472.88 472.88 0 0 1-.768 10.128c-.277 3.173-.544 5.532-.8 7.078h-5.562c-.128-7.566-.629-13.525-1.503-17.877-.874-4.352-2.12-6.528-3.74-6.528h-21.357v48.2h23.275l2.494 4.637a85.484 85.484 0 0 1-1.343 4.576 97.423 97.423 0 0 1-1.599 4.576 87.705 87.705 0 0 1-1.63 4.027c-.533 1.22-1.013 2.156-1.439 2.806-.64-1.22-1.322-2.237-2.046-3.05a10.625 10.625 0 0 0-2.526-2.075c-.959-.57-2.089-.976-3.389-1.22-1.3-.244-2.845-.366-4.636-.366h-7.161v58.206c0 .488.16 1.016.479 1.586.32.57.874 1.16 1.663 1.77.788.61 1.865 1.26 3.229 1.952s3.09 1.404 5.179 2.136v10.128z"/><path fill="url(#ag)" d="M195.86 896.195h26.812v14.027H195.86z" transform="matrix(6.19368 0 0 11.81979 -99.119 -9785.19)"/><path fill="url(#ah)" d="M170.555 832.648c35.512 12.782 64.969 71.414 64.654 122.396-6.966-46.806-20.264-72.81-57.397-69.272 5.344-22.541 3.477-43.118-7.257-53.124z" style="fill:url(#ah)" transform="matrix(6.19368 0 0 11.81979 -99.119 -9785.19)"/><path fill="#716c61" d="M1095.51 813.247c.214.325.224 1.16.032 2.501-.193 1.342-.501 2.99-.927 4.943a141.938 141.938 0 0 1-1.535 6.284 193.355 193.355 0 0 1-1.822 6.406 140.744 140.744 0 0 1-1.759 5.43c-.554 1.587-1.023 2.705-1.407 3.356l-4.667-1.952c-1.407-4.393-2.814-8.095-4.22-11.105-1.407-3.01-2.857-5.43-4.349-7.26s-3.026-3.153-4.604-3.966a10.87 10.87 0 0 0-5.051-1.22c-1.066 0-2.28.406-3.645 1.22-1.364.813-2.77 2.176-4.22 4.088-1.45 1.911-2.856 4.434-4.22 7.565-1.364 3.132-2.59 7.078-3.677 11.837-1.087 4.759-1.961 10.352-2.622 16.779-.66 6.426-.99 13.87-.99 22.33 0 10.739.617 19.931 1.853 27.578 1.237 7.647 2.9 13.911 4.988 18.792 2.089 4.881 4.476 8.481 7.162 10.8 2.685 2.318 5.499 3.477 8.44 3.477 2.046 0 3.869-.325 5.467-.976a15.801 15.801 0 0 0 4.38-2.685v-35.997c0-.895-.055-1.77-.16-2.624-.104-.854-.447-1.688-1.023-2.501-.575-.814-1.492-1.627-2.75-2.44-1.257-.814-3.058-1.628-5.402-2.441v-10.129h32.675v10.129c-1.237.57-2.239 1.22-3.006 1.952a9.376 9.376 0 0 0-1.854 2.44 9.605 9.605 0 0 0-.96 2.746c-.17.936-.255 1.891-.255 2.868v35.51c-3.155 4.962-6.139 9.05-8.952 12.263-2.814 3.213-5.467 5.755-7.961 7.626-2.494 1.872-4.85 3.173-7.066 3.905-2.216.732-4.284 1.098-6.202 1.098-3.155 0-6.277-.67-9.368-2.013-3.09-1.342-6.032-3.376-8.824-6.101-2.792-2.726-5.371-6.163-7.737-10.311-2.366-4.15-4.412-8.99-6.139-14.522-1.726-5.532-3.08-11.775-4.06-18.73-.98-6.956-1.47-14.623-1.47-23.003 0-13.504 1.14-25.605 3.42-36.302 2.281-10.698 5.435-19.768 9.464-27.212 4.028-7.444 8.803-13.118 14.323-17.023 5.52-3.905 11.52-5.857 18-5.857 1.407 0 3.123.285 5.147.855 2.025.57 4.103 1.383 6.235 2.44a38.468 38.468 0 0 1 6.234 3.905c2.025 1.545 3.72 3.295 5.084 5.247z"/><path fill="none" stroke="#716c61" stroke-width=".462" d="M83.594 885.96a2.24 2.24 0 0 0-.462.058c-.118.024-.236.075-.346.115-.062.024-.114.059-.174.087-.09.043-.177.063-.26.116l-.115.087c-.043.03-.103.052-.144.086-.053.045-.096.096-.144.145-.049.048-.102.093-.145.144-.053.064-.097.133-.144.202a2.35 2.35 0 0 0-.173.317c-.027.058-.064.114-.087.174l-.029.057c-.035.1-.064.213-.086.317v.029c-.028.145-.058.28-.058.433 0 .61.257 1.168.635 1.587l.058.058c.037.04.074.078.115.115.072.066.152.118.23.173.075.052.153.102.232.145l.144.087c.094.042.19.056.289.086l.173.058c.163.035.317.057.49.057.174 0 .33-.021.491-.057.308-.063.585-.177.837-.347.02-.014.038-.042.058-.057.591-.43.98-1.118.98-1.905 0-.296-.044-.576-.143-.837-.023-.06-.06-.116-.087-.173a2.364 2.364 0 0 0-.75-.895l-.116-.087c-.08-.051-.173-.074-.26-.115-.168-.08-.332-.164-.52-.202a2.528 2.528 0 0 0-.49-.058zm23.956 0c-.163 0-.336.027-.49.058a2.345 2.345 0 0 0-1.876 2.31 2.367 2.367 0 0 0 2.366 2.366c.199 0 .394-.036.578-.087.183-.05.358-.117.52-.202a2.352 2.352 0 0 0 1.27-2.078c0-.901-.501-1.679-1.242-2.078-.009-.01-.021 0-.029 0-.123-.066-.268-.101-.404-.145-.038-.012-.075-.047-.115-.057a2.25 2.25 0 0 0-.577-.087zm24.996 0a2.24 2.24 0 0 0-.462.058c-.117.024-.236.075-.346.115-.062.024-.114.059-.173.087-.09.043-.178.063-.26.116l-.115.087c-.044.03-.104.052-.145.086-.052.045-.096.096-.144.145-.048.048-.102.093-.144.144-.054.064-.098.133-.145.202a2.353 2.353 0 0 0-.173.317c-.027.058-.064.114-.087.174l-.028.057a2.43 2.43 0 0 0-.087.317v.029c-.028.145-.057.28-.057.433 0 .61.256 1.168.635 1.587l.057.058c.038.04.075.078.115.115.072.066.152.118.231.173.074.052.152.102.231.145l.144.087c.094.042.19.056.289.086l.173.058c.163.035.317.057.49.057.175 0 .33-.021.492-.057.308-.063.585-.177.837-.347.02-.014.038-.042.057-.057.592-.43.981-1.118.981-1.905 0-.296-.045-.576-.144-.837-.022-.06-.06-.116-.087-.173a2.364 2.364 0 0 0-.75-.895l-.116-.087c-.08-.051-.173-.074-.26-.115-.167-.08-.332-.164-.519-.202a2.528 2.528 0 0 0-.49-.058zm23.957 0a2.367 2.367 0 1 0 0 4.734c.198 0 .393-.036.577-.087 1.02-.262 1.79-1.177 1.79-2.28 0-.9-.5-1.678-1.242-2.078-.13-.071-.289-.098-.433-.144-.038-.012-.075-.047-.115-.058a2.25 2.25 0 0 0-.577-.086z" transform="matrix(6.19368 0 0 11.81979 -99.119 -9785.19)"/><path fill="none" stroke="#716c61" stroke-linecap="round" stroke-width="1.385" d="M89.323 887.998h10.622" transform="matrix(6.19368 0 0 11.81979 -99.119 -9785.19)"/><path fill="#330080" d="M581.624 714.7a14.66 27.975 0 0 1-29.319 0 14.66 27.975 0 1 1 29.319 0z" opacity=".25"/><path fill="#d4aa00" d="M566.964 686.725c-8.095 0-14.659 12.525-14.659 27.975 0 15.45 6.564 27.975 14.66 27.975 2.457 0 4.758-1.371 6.793-3.411-6.948-.35-12.514-11.22-12.514-24.564 0-13.453 5.665-24.382 12.692-24.563-2.076-2.153-4.441-3.412-6.972-3.412z" opacity=".25"/><path fill="#fae17a" d="m580.472 712.2-4.104-.748-1.793 7.084-.896-7.68-4.084-1.066 3.55-3.998-.73-7.742 3.09 5.208 3.632-3.719-1.64 7.217zM570.071 729.39l-1.39-3.085-2 1.417 1.108-3.477-1.323-3.19 2.075.936 1.18-3.388.175 4.055 2.054 1.096-1.967 1.57z" opacity=".25"/><path fill="none" stroke="#716c61" stroke-linecap="round" stroke-width="1.385" d="M113.337 887.998h7.736M123.036 887.998h2.078" transform="matrix(6.19368 0 0 11.81979 -99.119 -9785.19)"/><path fill="#5f8dd3" d="M433.383 714.7a14.66 27.975 0 0 1-29.318 0 14.66 27.975 0 1 1 29.318 0z" opacity=".25"/><path fill="#fc0" d="M418.724 686.866c-7.143 0-13 9.61-14.302 22.516h28.604c-1.303-12.906-7.16-22.516-14.302-22.516z" opacity=".25"/><path fill="#fff6d5" d="M428.377 711.971a6.436 12.282 0 0 1-12.871 0 6.436 12.282 0 1 1 12.871 0z" opacity=".25"/><path fill="#2ca02c" d="M407.908 733.415c2.683 5.678 6.405 9.212 10.727 9.212 4.28 0 8.046-3.629 10.726-9.212z" opacity=".25"/><path fill="none" stroke="#716c61" stroke-linecap="round" stroke-width="1.385" d="M138.275 887.998h10.622M162.29 887.998h7.735M171.988 887.998h2.078" transform="matrix(6.19368 0 0 11.81979 -99.119 -9785.19)"/><path fill="#5f8dd3" d="M736.578 714.7a14.66 27.975 0 0 1-29.318 0 14.66 27.975 0 1 1 29.318 0z" opacity=".25"/><path fill="#fc0" d="M721.919 686.866c-7.143 0-13 9.61-14.302 22.516h28.603c-1.302-12.906-7.158-22.516-14.301-22.516z" opacity=".25"/><path fill="#fff6d5" d="M731.572 711.971a6.436 12.282 0 0 1-12.871 0 6.436 12.282 0 1 1 12.871 0z" opacity=".25"/><path fill="#2ca02c" d="M711.103 733.415c2.683 5.678 6.405 9.212 10.727 9.212 4.28 0 8.046-3.629 10.726-9.212z" opacity=".25"/><path fill="#330080" d="M884.819 714.7a14.66 27.975 0 0 1-29.319 0 14.66 27.975 0 1 1 29.319 0z" opacity=".25"/><path fill="#d4aa00" d="M870.16 686.725c-8.097 0-14.66 12.525-14.66 27.975 0 15.45 6.563 27.975 14.66 27.975 2.457 0 4.758-1.371 6.793-3.411-6.948-.35-12.514-11.22-12.514-24.564 0-13.453 5.665-24.382 12.692-24.563-2.076-2.153-4.441-3.412-6.972-3.412z" opacity=".25"/><path fill="#fae17a" d="m883.667 712.2-4.104-.748-1.793 7.084-.896-7.68-4.084-1.066 3.55-3.998-.73-7.742 3.09 5.208 3.632-3.719-1.641 7.217zM873.266 729.39l-1.39-3.085-2 1.417 1.108-3.477-1.323-3.19 2.075.936 1.18-3.388.175 4.055 2.053 1.096-1.966 1.57z" opacity=".25"/><path fill="#716c61" d="M1100.644 237.711c8.781 115.812 8.675 153.938 8.397 184.059-.28 6.968 2.785 13.797 6.436 14.333 3.65.535 7.228-5.318 7.509-12.286 1.298-33.244.577-47.597-6.074-153.696-5.423-11.022-10.726-22.014-16.268-32.41zm35.218 72.326c5.467 98.677 3.934 70.168 3.749 122.991-.814 7.265 2.215 15.221 6.087 15.988 3.871.768 7.692-5.83 7.679-13.258 4.624-83.543 1.74-2.927-1.962-89.9a1483.69 1483.69 0 0 0-15.553-35.821zm34.324 81.878c2.363 47.213 1.183 47.103-.72 63.63-1.503 6.806.652 15.647 4.348 17.84 3.695 2.192 8.097-2.761 8.88-9.994 1.15-12.056 5.03-13.223 3.224-28.49-5.16-14.595-10.4-28.962-15.732-42.986zm31.642 90.066c.092 52.118-2.295 106.52-8.223 164.438-1.13 7.08 1.505 15.467 5.31 16.9 3.805 1.432 7.912-4.414 8.276-11.782 4.554-44.493 7.092-87.004 8.045-127.935-4.38-14.113-8.872-27.924-13.408-41.621zm25.386 80.855c-.143 40.241-1.947 80.466-6.257 120.428-.749 6.878 1.848 14.436 5.452 15.865 3.604 1.429 7.564-3.528 8.313-10.406 2.842-26.35 4.699-52.555 5.72-78.807-4.333-15.893-8.702-31.604-13.228-47.08zm22.525 82.219c.343 30.757 0 60.947-1.43 90.065-.326 6.968 2.696 13.875 6.346 14.5 3.65.626 7.27-5.145 7.598-12.11.598-12.295.976-24.66 1.251-37.188a2986.337 2986.337 0 0 0-13.765-55.267zm23.955 99.277c-.303 11.917-.543 24.293-.894 35.821-.188 9.925 6.876 17.102 11.084 11.26a3255.488 3255.488 0 0 0-10.19-47.08zM1176.12 649.988l-5.252-1.449c-.177-5.637-.51-9.902-1.002-12.79-.493-2.889-1.033-4.415-1.624-4.579-18.681-16.716-38.908-31.938-61.45-24.126-.504-.141-1.236.95-2.187 3.281-.952 2.33-1.942 6.308-2.972 11.941l-5.253-1.447c3.723-26.046 3.618-44.79 5.03-66.425l5.253 1.448c.177 5.638.52 9.904 1.034 12.8.512 2.895 1.064 4.423 1.655 4.586 8.71-1.227 17.422 5.377 26.133 6.604l4.48-59.179c-8.71-1.489-17.422-7.477-26.133-6.603-.503-.142-1.235.95-2.186 3.281-.952 2.332-1.942 6.307-2.972 11.941l-5.253-1.448c3.642-14.64 5.258-37.014 5.03-66.425l5.252 1.448c.177 5.639.52 9.905 1.034 12.8.513 2.894 1.065 4.424 1.655 4.587 19.892-2.268 40.272 9.18 61.451 24.127.504.141 1.224-.961 2.155-3.29.93-2.33 1.91-6.316 2.94-11.95l5.252 1.448c-1.835 28.905-2.974 41.8-5.029 66.424l-5.253-1.448c-.177-5.638-.509-9.901-1.001-12.791-.493-2.89-1.033-4.415-1.624-4.578-8.513-7.062-17.298-13.08-27.09-15.257l-4.48 59.178c9.03 2.84 18.06 5.25 27.09 15.257.503.142 1.222-.938 2.15-3.229.927-2.29 1.909-6.296 2.944-12.01l5.252 1.448c-.056 9.372-2.936 43.697-5.029 66.425z" opacity=".75"/><text xml:space="preserve" x="22.297" y="1169.563" style="font-style:normal;font-weight:400;font-size:4.67499px;line-height:1.25;font-family:sans-serif;fill:#000;fill-opacity:1;stroke:none;stroke-width:.116875" transform="matrix(8.55617 0 0 8.55617 -99.119 -9785.19)"><tspan x="22.297" y="1169.563" style="font-style:normal;font-variant:normal;font-weight:700;font-stretch:normal;font-size:14.025px;font-family:serif;-inkscape-font-specification:&quot;serif, Bold&quot;;font-variant-ligatures:normal;font-variant-caps:normal;font-variant-numeric:normal;font-variant-east-asian:normal;fill:#716c61;fill-opacity:1;stroke-width:.116875">YYYY-MM-DD</tspan></text></svg>